<?xml version="1.0" encoding="utf-8"?>
<!-- Generator: Adobe Illustrator 23.0.2, SVG Export Plug-In . SVG Version: 6.00 Build 0)  -->
<svg version="1.1" id="レイヤー_1" xmlns="http://www.w3.org/2000/svg" xmlns:xlink="http://www.w3.org/1999/xlink" x="0px"
	 y="0px" viewBox="0 0 27 47.2" style="enable-background:new 0 0 27 47.2;" xml:space="preserve">
<style type="text/css">
	.st0{fill:#EB6248;}
	.st1{fill:none;stroke:#46688A;stroke-width:2;stroke-linecap:round;stroke-linejoin:round;stroke-miterlimit:10;}
</style>
<g>
	<path class="st0" d="M3,19.1c-1.2,2-2,4.4-2,7.8c0,10,0,19.3,0,19.3h25c0,0,0-9.3,0-19.3c0-3.4-0.8-5.8-2-7.8
		C24,19.1,3,19.1,3,19.1z"/>
	<path class="st1" d="M26,46.1c0,0,0-9.3,0-19.3c0-7.8-4.4-10.2-7.1-15.7C16.7,6.9,17.4,1,17.4,1H9.6c0,0,0.7,5.9-1.4,10.2
		C5.4,16.7,1,19.1,1,26.9c0,10,0,19.3,0,19.3L26,46.1L26,46.1z"/>
</g>
</svg>
