<?xml version="1.0" encoding="utf-8"?>
<!-- Generator: Adobe Illustrator 23.0.2, SVG Export Plug-In . SVG Version: 6.00 Build 0)  -->
<svg version="1.1" id="レイヤー_1" xmlns="http://www.w3.org/2000/svg" xmlns:xlink="http://www.w3.org/1999/xlink" x="0px"
	 y="0px" viewBox="0 0 28 48" style="enable-background:new 0 0 28 48;" xml:space="preserve" width="25px" height="45px">
<style type="text/css">
	.st0{fill:#EB6248;}
	.st1{fill:none;stroke:#46688A;stroke-width:2;stroke-linecap:round;stroke-linejoin:round;stroke-miterlimit:10;}
</style>
<path class="st0" d="M19.36,11.65c-1.15-2.3-1.47-5.08-1.53-7.16h-7.64c-0.05,2.08-0.38,4.85-1.53,7.16
	c-2.76,5.52-7.13,7.84-7.13,15.68c0,9.98,0,19.25,0,19.25h24.95c0,0,0-9.27,0-19.25C26.48,19.49,22.12,17.16,19.36,11.65z"/>
<path class="st1" d="M26.48,46.56c0,0,0-9.27,0-19.25c0-7.84-4.37-10.16-7.13-15.68c-2.14-4.28-1.43-10.21-1.43-10.21h-7.84
	c0,0,0.71,5.93-1.43,10.21c-2.76,5.52-7.13,7.84-7.13,15.68c0,9.98,0,19.25,0,19.25H26.48z"/>
</svg>
