<?xml version="1.0" encoding="utf-8"?>
<!-- Generator: Adobe Illustrator 23.0.2, SVG Export Plug-In . SVG Version: 6.00 Build 0)  -->
<svg version="1.1" id="レイヤー_1" xmlns="http://www.w3.org/2000/svg" xmlns:xlink="http://www.w3.org/1999/xlink" x="0px"
	 y="0px" viewBox="0 0 28 48" style="enable-background:new 0 0 28 48;" xml:space="preserve" width="25px" height="45px">
<style type="text/css">
	.st0{fill:#EB6248;}
	.st1{fill:none;stroke:#46688A;stroke-width:2;stroke-linejoin:round;stroke-miterlimit:10;}
</style>
<path class="st0" d="M1.53,37.49c0,5.31,0,9.08,0,9.08h24.95c0,0,0-3.77,0-9.08H1.53z"/>
<path class="st1" d="M26.47,46.57c0,0,0-9.27,0-19.25c0-7.84-4.37-10.16-7.13-15.68C17.2,7.36,17.91,1.43,17.91,1.43h-7.84
	c0,0,0.71,5.93-1.43,10.21c-2.76,5.52-7.13,7.84-7.13,15.68c0,9.98,0,19.25,0,19.25H26.47z"/>
</svg>
