<?xml version="1.0" encoding="utf-8"?>
<!-- Generator: Adobe Illustrator 23.0.2, SVG Export Plug-In . SVG Version: 6.00 Build 0)  -->
<svg version="1.1" id="レイヤー_1" xmlns="http://www.w3.org/2000/svg" xmlns:xlink="http://www.w3.org/1999/xlink" x="0px"
	 y="0px" viewBox="0 0 58 230" style="enable-background:new 0 0 58 230;" xml:space="preserve" width="80px" height="260px">
<style type="text/css">
	.st0{fill:#D1D3D4;}
</style>
<path class="st0" d="M45.99,228.1c3.96,0,10.64-2.81,10.64-10.85c0-4.09,0-82.51,0-93.4c0-23.66-9.59-46.33-11.14-51.43
	c-1.67-5.49-5.5-21.44-6.01-28.4c-0.55-7.53-0.55-27.89-0.55-27.89l1.06-0.96V1.9H18.01v13.28l1.06,0.96c0,0,0,20.36-0.55,27.89
	c-0.51,6.96-4.34,22.91-6.01,28.4c-1.55,5.1-11.14,27.77-11.14,51.43c0,10.89,0,89.32,0,93.4c0,8.04,6.68,10.85,10.64,10.85H45.99z"
	/>
</svg>
