<svg id="レイヤー_1" data-name="レイヤー 1" xmlns="http://www.w3.org/2000/svg" viewBox="0 0 708.66 141.73"><defs><style>.cls-1,.cls-3,.cls-4{fill:#fff;}.cls-1,.cls-2{stroke:#4a6f95;}.cls-1,.cls-2,.cls-3,.cls-4,.cls-5{stroke-miterlimit:10;}.cls-1{stroke-width:5px;}.cls-2{fill:#4a6f95;}.cls-3,.cls-4,.cls-5{stroke:#444545;}.cls-3{stroke-width:8px;}.cls-4{stroke-width:6px;}.cls-5{fill:#444545;stroke-width:2px;}</style></defs><title>Insta_icon</title><rect class="cls-1" x="13.67" y="11.33" width="678.67" height="117.33"/><path class="cls-2" d="M143.65,60.39c0-4,0-9.17,3.58-12.73a10.84,10.84,0,0,1,7.52-2.87,12.19,12.19,0,0,1,4.83.94l-.83,3.8a9.56,9.56,0,0,0-3.76-.76c-5.13,0-6.39,4.67-6.39,9.81v1.81h7.88v3.8H148.6v28h-4.95v-28h-4.47v-3.8Z"/><path class="cls-2" d="M189.24,76.05c0,11.86-8,16.88-15.22,16.88-8.35,0-14.79-6.13-14.79-16.42,0-10.86,6.92-16.88,15.21-16.88C183.33,59.63,189.24,66.29,189.24,76.05Zm-15-12.62c-7,0-10,6.78-10,12.91,0,7.07,4,12.79,9.84,12.79s10-5.72,10-12.91C184.17,70.56,181.36,63.43,174.26,63.43Z"/><path class="cls-2" d="M201.71,92.23h-5V45.5h5Z"/><path class="cls-2" d="M216.51,92.23h-4.95V45.5h4.95Z"/><path class="cls-2" d="M254,76.05c0,11.86-8,16.88-15.21,16.88-8.36,0-14.8-6.13-14.8-16.42,0-10.86,6.92-16.88,15.22-16.88C248.08,59.63,254,66.29,254,76.05ZM239,63.43c-7,0-10,6.78-10,12.91,0,7.07,4,12.79,9.85,12.79s10-5.72,10-12.91C248.91,70.56,246.11,63.43,239,63.43Z"/><path class="cls-2" d="M303.27,60.33,293,92.23h-4.42l-5.13-16a94,94,0,0,1-2.86-10.51h-.18a82.64,82.64,0,0,1-3,10.57l-5.43,16h-4.48l-9.6-31.9H263L267.53,77c.9,3.56,1.79,6.83,2.45,10.11h.18C270.87,84,272,80.54,273,77.1l5.43-16.77h4.3l5.19,16.48c1.13,3.73,2.09,7.12,2.86,10.34H291c.6-3.16,1.49-6.49,2.57-10.29l4.77-16.53Z"/><path class="cls-2" d="M350.77,76.05c0,11.86-8,16.88-15.21,16.88-8.36,0-14.8-6.13-14.8-16.42,0-10.86,6.92-16.88,15.22-16.88C344.87,59.63,350.77,66.29,350.77,76.05Zm-15-12.62c-7,0-10,6.78-10,12.91,0,7.07,4,12.79,9.85,12.79s10-5.72,10-12.91C345.7,70.56,342.9,63.43,335.8,63.43Z"/><path class="cls-2" d="M384.31,92.23h-4.95V73.42c0-5.2-1.91-9.76-7.58-9.76a8.76,8.76,0,0,0-8.53,9.06V92.23h-5V68.57c0-3.27-.12-5.67-.23-8.24h4.41l.3,5.2h.12a11.65,11.65,0,0,1,10.44-5.9c4.06,0,11,2.4,11,13.2Z"/><path class="cls-2" d="M408,47.72H413V92.23H408Z"/><path class="cls-2" d="M449,92.23H444V73.42c0-5.2-1.91-9.76-7.58-9.76a8.76,8.76,0,0,0-8.53,9.06V92.23H423V68.57c0-3.27-.12-5.67-.24-8.24h4.42l.29,5.2h.12A11.66,11.66,0,0,1,438,59.63c4.05,0,11,2.4,11,13.2Z"/><path class="cls-2" d="M473.82,65.24a11.83,11.83,0,0,0-6.33-1.87c-3.58,0-5.49,2.16-5.49,4.73,0,2.75,1.85,4,6,5.79,5.25,2.1,8.29,4.79,8.29,9.58,0,5.66-4.41,9.4-11.51,9.4a17.53,17.53,0,0,1-8.53-2.16L457.65,87A15.71,15.71,0,0,0,465,89.13c4.35,0,6.5-2.28,6.5-5.14s-1.73-4.61-6-6.31c-5.49-2.16-8.29-5.14-8.29-9,0-5,4.06-9.06,10.62-9.06a14.66,14.66,0,0,1,7.46,1.93Z"/><path class="cls-2" d="M485.22,54.61,490.11,53v7.42h8.41v3.8h-8.41v18.4c0,4,1.25,6.25,4.42,6.25a9.93,9.93,0,0,0,3.34-.47l.3,3.74a12.75,12.75,0,0,1-4.84.76c-7.87,0-8.11-7-8.11-10.4V64.19h-5v-3.8h5Z"/><path class="cls-2" d="M526.33,84.63a43.46,43.46,0,0,0,.48,7.6h-4.54l-.47-4.09h-.18A11.39,11.39,0,0,1,512,92.93c-6.21,0-9.49-4.44-9.49-9.06,0-7.65,6.8-11.8,18.86-11.74,0-2.68,0-8.76-7.4-8.76A14.29,14.29,0,0,0,506,65.65l-1.19-3.33a18.72,18.72,0,0,1,9.9-2.69c9.19,0,11.58,6.37,11.58,12.68Zm-4.89-8.93c-6.15,0-13.85.87-13.85,7.59,0,4.09,2.63,5.9,5.61,5.9,4.84,0,8.24-3.62,8.24-7.48Z"/><path class="cls-2" d="M562.31,60.33c-.18,2.28-.3,4.85-.3,8.77V87.67c0,5.55-.12,18.29-15.51,18.29-3.7,0-7.76-.88-10.2-2.52l1.31-3.79a18.26,18.26,0,0,0,9.13,2.39c6,0,10.32-3.09,10.32-11.51V86.74h-.12c-1.67,3-5.13,5.43-10.08,5.43-7.76,0-13.31-6.72-13.31-15.66,0-11,7-16.88,14.08-16.88,5.55,0,8.48,2.92,9.85,5.49h.12l.24-4.79ZM557,72.6a8.66,8.66,0,0,0-8.65-9c-5.73,0-9.73,5-9.73,12.67,0,6.78,3.35,12.09,9.67,12.09,3.7,0,8.71-2.74,8.71-9.34Z"/><path class="cls-2" d="M586.66,64.48a14.85,14.85,0,0,0-1.79-.12c-5.37,0-8.11,5.2-8.11,10.58V92.23h-5V69.91c0-3.39-.06-6.48-.24-9.52h4.36l.24,6.13h.18c1.43-4,4.83-6.83,8.83-6.83a12.62,12.62,0,0,1,1.49.18Z"/><path class="cls-2" d="M613.75,84.63a43.46,43.46,0,0,0,.48,7.6h-4.54l-.47-4.09H609a11.38,11.38,0,0,1-9.61,4.79c-6.2,0-9.49-4.44-9.49-9.06,0-7.65,6.81-11.8,18.86-11.74,0-2.68,0-8.76-7.4-8.76a14.31,14.31,0,0,0-7.94,2.28l-1.19-3.33a18.78,18.78,0,0,1,9.91-2.69c9.19,0,11.57,6.37,11.57,12.68Zm-4.89-8.93c-6.15,0-13.84.87-13.84,7.59,0,4.09,2.62,5.9,5.6,5.9,4.84,0,8.24-3.62,8.24-7.48Z"/><path class="cls-2" d="M667.58,92.23h-4.9V73.83c0-6.19-2.26-10.17-7.16-10.17-4,0-7.64,3.68-7.64,8.53v20H643V72.6c0-5.08-2.21-8.94-6.8-8.94-4.24,0-8,4.09-8,9.06V92.23H623.3V68.57c0-3.27-.12-5.61-.24-8.24h4.36l.3,5.14h.18a10.86,10.86,0,0,1,9.9-5.84A9.27,9.27,0,0,1,646.69,66h.12c2.15-3.8,5.43-6.37,10.44-6.37,4,0,10.33,2.51,10.33,13.44Z"/><path class="cls-3" d="M58.38,30.12H90.13A24.88,24.88,0,0,1,115,55V86.74a24.87,24.87,0,0,1-24.87,24.87H58.38A24.88,24.88,0,0,1,33.5,86.74V55A24.87,24.87,0,0,1,58.38,30.12Z"/><circle class="cls-4" cx="74.25" cy="70.87" r="20.77"/><circle class="cls-5" cx="98.15" cy="47.49" r="4.63"/></svg>