<svg xmlns="http://www.w3.org/2000/svg" viewBox="0 0 365.84 370.78"><defs><style>.cls-1{fill:#4a6f95;}</style></defs><title>textlogo08</title><g id="レイヤー_2" data-name="レイヤー 2"><g id="レイヤー_1-2" data-name="レイヤー 1"><path class="cls-1" d="M363.71,182c.31,2.72.7,2.3,1.11.43s.7-5.23,1-8.35l-.65-1.37-.72-1.37L363,168.65C363.51,173.08,363.52,177.55,363.71,182Z"/><path class="cls-1" d="M361.84,152l-1.3-3.61c-.43-1.21-.85-2.41-1.37-3.58l-2.95-7,1.84,5.12c.6,1.72,1.26,3.43,1.74,5.19.43,6.07-.32,5.75-1.32,3.44-.49-1.16-1.06-2.83-1.57-4.46s-1.13-3.23-1.51-4.3c1.32,4.69,2,7.5,2.61,9s1.09,1.85,1.49,1.64C360.3,153,360.84,150.53,361.84,152Z"/><path class="cls-1" d="M352.51,123.72a24.07,24.07,0,0,0-1.9-4.71c-.51-.92-.87-1.25-1.09-1.18-.43.15-.33,1.91.15,3.86C350.57,122,353.3,127.72,352.51,123.72Z"/><path class="cls-1" d="M31.75,282.8c-1.23-2.57-2.8-5.48-2.16-5.32-1-1.2-1.66-1.94-1.52-1.3S29.26,278.76,31.75,282.8Z"/><path class="cls-1" d="M29.59,277.48,30.92,279c-.37-.51-.67-.95-1.12-1.51C29.65,277.38,29.67,277.5,29.59,277.48Z"/><path class="cls-1" d="M47,97c1.09-2.26,2.13-4.24,3.17-6.06s2.21-3.36,3.31-5S55.75,82.9,57,81.3s2.47-3.35,4-5.19l5-2.63c3.24-3.92,3.72-5,3.9-6S70,65.94,72.31,63c1-.69,2-1.53,3.14-2.46s2.38-1.86,3.63-2.9c2.46-2.13,5.26-4.23,7.83-6.37,1.28-1.07,2.64-2,3.86-2.94s2.38-1.82,3.45-2.6c2.17-1.48,3.89-2.66,4.85-3.24,3.09-.85-2.54,3.2-3.47,4.48a70.5,70.5,0,0,0,5.54-4.4c1.45-1.17,2.59-2.17,3.82-3.22A31.53,31.53,0,0,1,109.41,36a57.7,57.7,0,0,1,7.74-4.16l.46.41a131,131,0,0,1,26.45-11.12,153.14,153.14,0,0,1,30.55-5.68,172.7,172.7,0,0,1,32,.31,191.62,191.62,0,0,1,30.91,5.78c-2.6-1-1.83-1.14-2.74-1.86A169.47,169.47,0,0,1,266,32,182.71,182.71,0,0,1,294.7,50.38a215.09,215.09,0,0,1,24.15,22c7.17,7.58,13.4,15.23,18.89,22.33-.8-1.29-1.57-2.68-2.44-4.07l-2.74-4.3-1.41-2.26L329.6,81.8l-3.18-4.67a182.59,182.59,0,0,0-15.33-18.66c-11.37-12-25-22-36.59-26.55a44.19,44.19,0,0,0-6.3-4.2c-2.36-1.24-4.81-2.47-7.14-3.55s-4.57-2-6.34-2.91a13.1,13.1,0,0,1-3.88-2.55l-3-1.26c-1-.42-2-.81-2.94-1.13l-5.66-1.94c-1.82-.64-3.65-1-5.4-1.53s-3.44-.95-5.13-1.27A134,134,0,0,0,209.7,9c-3.06-.17-6.09-.43-9.21-.39l-4.72-.06c-1.6,0-3.22.07-4.88.09l-5.08.11L180.46,9c-3.67.11-7.54.59-11.73.89-4.82.17-2.61-1.09-4.11-1.9a171.84,171.84,0,0,1,26.94-2.16c-5.5-.49-11-.62-16.57-.61a47.79,47.79,0,0,1,6.9-.71c1.34-.08,2.75-.18,4.16-.22l4.23,0c1.39,0,2.74,0,4-.06s2.42,0,3.45,0c2.05-.06,3.55-.25,4.1-.68-1.52,0-3.08,0-4.69,0-.8,0-1.62,0-2.44,0l-2.52.07L187,3.7c-.88,0-1.77,0-2.67.1l-2.71.14c-1.81.11-3.66.16-5.51.29l-5.61.52L167.67,5l-2.82.39-5.64.78c-15,2.39-29.12,7-38.22,12.08,1.16-.39,2.33-.81,3.54-1.26s2.46-.8,3.73-1.24c2.55-.83,5.15-1.81,7.89-2.56s5.47-1.7,8.31-2.31,5.65-1.41,8.5-1.8c1.27-.06,2.71-.16,4.14-.26.72-.05,1.43-.11,2.13-.14l2,0c2.53,0,4.37.15,4.18.68l-5.9,1.25L153.79,12l-2.82.68-2.77.79L142.71,15l-5.36,1.72-2.67.83-2.62.95-5.23,1.86-5.14,2.08-2.57,1c-.85.36-1.68.77-2.53,1.15l-5.07,2.32c-1.67.83-3.33,1.7-5,2.56L104,30.8l-2.47,1.43-5,2.91q-2.43,1.59-4.89,3.22c-1.67,1-3.26,2.25-4.87,3.45l-2.43,1.81-1.23.91-1.18,1c-6.53,5-14.7,12.64-16.36,12.91,3.71-4,.17-1.76,3.1-5.21-4,4.39-3.58,5.23-3.75,6.4a5.75,5.75,0,0,1-1.23,2.55c-.47.64-1.11,1.43-2,2.43s-2.1,2.16-3.48,3.74c-.38-1.29-.78-2.63-1.1-3.92-.91,3.78-4.48,7.48-8.31,12s-8,9.57-10.35,15.26c-1.74,1.48-1.74.42-.63-2,.56-1.21,1.38-2.77,2.37-4.53s2.32-3.61,3.64-5.55a44.29,44.29,0,0,0-3.74,5.27,44.08,44.08,0,0,0-2,4c-.52,1.23-1,2.36-1.62,3.72a40.12,40.12,0,0,1-2.36,4.65L34.9,93l.39-2.13.47-2.1a32.49,32.49,0,0,1-2.39,6.13,42.91,42.91,0,0,1-3.16,4.83c-2.15,2.93-4.62,5.2-6.06,7.42.19.43,1.29-.22,1.73.32.22.28.28.84,0,2a20.14,20.14,0,0,1-.74,2.18c-.35.9-.86,2-1.38,3.29-2.14,4.42-1.9,1.81-2.71,2.74.22.43.25,1.72-.1,3.77a47,47,0,0,1-2,8.52c-1.38,1,.21-5.19-.58-6-1.88,5.44-2.86,10-4.78,13.82-1.5,10.09,1.51-.3,1.15,6-1.09,3.71-1.61,5.68-2.19,6.55s-1,.69-1.41.18c-.86-1-1.65-3.31-3.19-.61.1-1.5.2-3.07.36-4.65s.46-3.18.69-4.79.46-3.24.81-4.82.68-3.14,1-4.66c.6-3.06,1.44-5.87,2.09-8.36q.49-1.87.9-3.45c.3-1,.57-1.95.77-2.74l-1,2.75-.85,2.79L11,127.48l-1.41,5.66L8.94,136c-.23.94-.39,1.9-.58,2.85-.4-.83-1.76,2.9-2.82,5.33-.54,1.21-.9,2.11-1.14,1.92s-.17-.46-.17-1.2a32.25,32.25,0,0,1,.35-3.36A140.64,140.64,0,0,0,0,178.79a170.79,170.79,0,0,0,4.28,36.5c-.08-1.6-.24-3.41-.28-4.75s.14-2.23.53-1.95c2.56,11.23,1,10.22.71,12.72,1.37,4.11,2.43,5.8,3.57,7a21.41,21.41,0,0,1,3.69,4.3,114.84,114.84,0,0,0,4.82,17.68c.69,2.23,1.51,4.32,2.33,6.8.42,1.25.84,2.58,1.29,4.06s1.05,3.06,1.63,4.87l1.34-1.72a29.59,29.59,0,0,0,5.44,10l1.46,1.91c.52.65,1.05,1.34,1.6,2.12a56.13,56.13,0,0,1,3.6,5.94c0,.36-.76-.23-1.72-1.32s-2.24-2.61-3.38-4A40.75,40.75,0,0,1,34.11,284c.75,1.3,1.27,2.35,1.77,3.41a26,26,0,0,0,5.36,7.88l-3.31-2.42c-1.08-.84-2.13-1.71-3.2-2.57l1.86,2.52c.64.86,1.37,1.69,2,2.53,1.37,1.66,2.68,3.28,3.71,4.63,2.17,2.63,3.2,4.25,1.13,3.31,1.36,1.14,2.79,2.43,4.27,3.84s3.16,2.82,4.81,4.37,3.41,3.12,5.22,4.73,3.62,3.29,5.58,4.85l2.9,2.41c1,.81,1.93,1.62,3,2.36l6,4.49c2,1.38,4.08,2.72,6,4,1,.65,2,1.23,3,1.78l2.92,1.61-1.89.82a32.46,32.46,0,0,1,3.7,1.66c1.36.71,2.92,1.43,4.52,2.3s3.27,1.82,5,2.71l5.39,2.73c1.78,1,3.65,1.71,5.43,2.5s3.5,1.53,5.14,2.1a35.22,35.22,0,0,0,8.19,2l1,1.08c3,.57,5.84,1.23,8.78,1.7s5.86.91,8.8,1.25c7.69,2,4.53,3.9,5.3,3.34,2.16.49,4.29.76,6.35,1.09s4.06.69,6,.9l5.73.66c.93.1,1.84.24,2.74.31l2.69.2,5.14.44c1.66.18,3.29.18,4.87.3s3.11.2,4.61.31,3,.13,4.38.23c.7-.59,2.38-1.1,4.72-1.55l4-.74c1.46-.27,3.05-.52,4.73-.77s3.43-.56,5.24-.88l5.55-.94,5.61-1.17c1.86-.38,3.7-.73,5.46-1.21l6.44-1.36c2.14-.54,4.26-1.13,6.4-1.7,1.06-.3,2.14-.54,3.19-.89l3.17-1,3.16-1,1.59-.52,1.56-.6,6.24-2.41c2-.88,4.08-1.81,6.13-2.72s4-1.93,6-3,4-2,5.94-3.16l5.82-3.39,5.66-3.67c1.91-1.19,3.68-2.58,5.52-3.88l2.72-2c.91-.66,1.76-1.4,2.65-2.09a166.92,166.92,0,0,0,19.69-18.24l2.26-2.47,1.12-1.23,1.07-1.28c1.42-1.71,2.83-3.42,4.25-5.12s2.66-3.54,4-5.3,2.56-3.59,3.78-5.41c2.53-3.6,4.71-7.4,6.95-11.11,2.05-3.84,4.19-7.59,5.95-11.52,1.91-3.84,3.46-7.82,5.08-11.73.75-2,1.42-4,2.13-5.95l1-3c.3-1,.59-2,.89-3a170,170,0,0,0,5.46-23.86c.39-2.36.7-5,.89-7.73s.09-5.71.07-8.69-.35-6-.53-9.09-.61-6-.81-9c-.24,3.58-.34,6.35-.37,8.71s-.2,4.31-.23,6.26c0,1,0,1.95-.06,3S359,202,359,203.19a75.31,75.31,0,0,1-1.07,8.54c-.31,1.29-.63,2.48-.95,3.58a24.53,24.53,0,0,1-1.05,3c-.77,1.88-1.56,3.5-2.35,5.06s-1.69,3-2.59,4.64-1.8,3.33-2.83,5.34c1.1-1.23,2.08-2.52,3.13-3.81-.31,1.75-.54,3.23-.87,4.45s-.63,2.2-.91,3a32.44,32.44,0,0,1-1.45,3.64c-.91,1.88-1.69,3.36-2.86,9L342.46,248c-.06,2.08-1.4,5.25-3,8.27a59.45,59.45,0,0,1-5.12,7.34l.07,4.21c-.67.89-1.32,1.73-1.94,2.54s-1.27,1.54-1.86,2.24c-1.19,1.41-2.27,2.65-3.26,3.72a14.67,14.67,0,0,1-5.33,3.93l2.1.46c-.75.48-2.25,2.51-4.32,4.9l-3.22,3.91c-1.17,1.32-2.37,2.64-3.51,3.87a34,34,0,0,1-5.67,5.25c-1.25.79-1.59.37-.44-2.07-.7,1.06-1.26,2.18-2.15,3.53a25.43,25.43,0,0,1-4.28,4.63l-1.94-.87-1,1.09-1.07,1-2.15,2.07a53,53,0,0,1-4.21,3.73c-2.73,2.15-5,3.77-6.28,3.93.4-.36.76-.69,1.08-1s.59-.65.84-.94a15.78,15.78,0,0,0,1.17-1.6,11.63,11.63,0,0,0,1.15-2.5c-1.62,1.25-3.05,2.38-4.3,3.41s-2.43,1.83-3.4,2.61-1.79,1.49-2.48,2.12-1.29,1.14-1.77,1.63c-1.91,1.93-2.11,3-2.21,4.1a6.41,6.41,0,0,1-.28,1.65,5.35,5.35,0,0,1-1.4,2.14c-1.62,1.66-4.78,4.18-11.53,7.58l-.26-1.31c-1,.8-2.08,1.52-3.15,2.25l-3.21,2.2-2,.45-2,.37-4,.71a16.49,16.49,0,0,1-1.85,1.51,25.87,25.87,0,0,1-2.38,1.36,50.94,50.94,0,0,1-6,2.61c-2.27.74-4.75,1.47-7.35,2.19S223,348.44,220.2,349c-11.4,2-23.79,2.5-32.91,3.63a29.66,29.66,0,0,1-5.85-.27c-2.11-.25-4.38-.52-6.83-1-4.9-.89-10.52-2-17.2-3l.55,2.1c-5.29-1.79-17.85-5.25-29.4-10.69s-22-12.6-25-17.14l-2.65-1a11,11,0,0,0-1.18-.43c-.38-.08,0,.2.55.64,1.19.88,3.5,2.28,3,2.92-1.13-.5-2.18-1-3.17-1.44s-1.86-1-2.71-1.49c-1.68-.95-3.15-1.82-4.41-2.67a48.07,48.07,0,0,1-5.7-4.77c-1.42-1.5-2.51-2.94-3.71-4.41l-1.91-2.3c-.67-.84-1.41-1.71-2.27-2.65-9.67-7.06,6.41,6.54.6,3.48-1.62-1.65-3-3-4.3-4.16s-2.3-2.18-3.31-3-1.91-1.57-2.8-2.23-1.69-1.33-2.56-2-1.73-1.36-2.69-2.17c-.48-.4-1-.82-1.5-1.29s-1-1-1.58-1.59c-1.1-1.16-2.33-2.51-3.71-4.14s-2.76-3.68-4.41-6c-.5-2.46,4.23,4.2,6.31,5.52-5.88-5.49-13-14.72-19-25.69a178.57,178.57,0,0,1-14.26-35.08c-.85-3.32-1.38-6.92-2.12-10.62-.32-1.87-.54-3.79-.83-5.73-.13-1-.27-2-.41-2.94s-.19-2-.29-3a164.23,164.23,0,0,1-.66-25.34c.06-1.09.12-2.17.19-3.26s.09-2.18.24-3.26c.23-2.17.47-4.34.7-6.51s.69-4.31,1-6.46.8-4.25,1.25-6.35.88-4.19,1.49-6.22,1.09-4.07,1.7-6.05,1.31-3.91,2-5.83c.3-1,.67-1.89,1.05-2.81l1.1-2.75-.49-.79c.37-.73.73-1.48,1.08-2.23l1.11-2.23c.74-1.5,1.43-3,2.1-4.58L38.58,115c.72-1.57,1.39-3.18,2.21-4.74s1.56-3.18,2.35-4.79,1.75-3.16,2.64-4.76c.45-.8.91-1.6,1.37-2.4s1-1.55,1.53-2.33c1-1.55,2.09-3.12,3.23-4.64C50.25,93.16,48.64,95.08,47,97Z"/><path class="cls-1" d="M209.77,2.21l-2.57-2C204.5,0,201.78,0,199.08,0H195l-4,.18a34.22,34.22,0,0,0,4.42.74c1.36.19,2.67.28,4.06.34l4.53.2C205.68,1.59,207.56,1.85,209.77,2.21Z"/><path class="cls-1" d="M205.77,6.88l4.1.12c1.38,0,2.76,0,4.12.18-1.09-.2-2.19-.32-3.29-.44l-3.3-.39L204.1,6c-1.1-.09-2.2-.15-3.31-.23C202.46,6.08,204.12,6.41,205.77,6.88Z"/><path class="cls-1" d="M34.3,86.8l1.33-1.59A182.35,182.35,0,0,1,53,60.36,180.17,180.17,0,0,0,34.3,86.8Z"/><path class="cls-1" d="M29.69,282.76a28.58,28.58,0,0,1-3.87-4.89,55.81,55.81,0,0,0-3.54-5.26l4,6.15,4.31,5.94Z"/><path class="cls-1" d="M140.82,369.33c6.27-1.62,11.11,2.47,4.3-1.81C136.27,366,143.57,368.92,140.82,369.33Z"/><path class="cls-1" d="M174.79,369.88a75.39,75.39,0,0,0-10.79-.13,17.32,17.32,0,0,0,3.94,1,10.45,10.45,0,0,0,2.52,0C171.85,370.51,172.89,370,174.79,369.88Z"/><path class="cls-1" d="M301.76,181.15c-.05,1.08.78.69.93.85C302.47,180.19,301.54,181.2,301.76,181.15Z"/><polygon class="cls-1" points="298.41 163.77 298.8 164.03 297.52 161.63 298.41 163.77"/><path class="cls-1" d="M294.7,147.87c-1,1.89,1.92,5.6,2,8.6l-.2.53,1.41,1c-.51-1.71-1.13-3.66-1.81-5.45A23.91,23.91,0,0,1,294.7,147.87Z"/><path class="cls-1" d="M294.62,138.53c-.32.72-1.16-1.62.6,2a2.9,2.9,0,0,1,0-.4C295.07,139.8,294.89,139.33,294.62,138.53Z"/><path class="cls-1" d="M295.21,140.13c.69,1.63,0-1.24,0,0Z"/><path class="cls-1" d="M291.74,132.75l1.41,1.91c.1-.57-.69-2.5-.15-1.9C291.76,130.69,291.67,131.29,291.74,132.75Z"/><path class="cls-1" d="M289.87,131.22c.25.32.49.64.71,1C290.62,132,290.54,131.63,289.87,131.22Z"/><path class="cls-1" d="M292,134.32l-1.45-2.12c-.07.4-.48.63.62,1C290.74,133.18,291.31,133.46,292,134.32Z"/><path class="cls-1" d="M292.42,135.72c.27,1.3.68,2.92-.65,1,.94,2,1.53,2.75,1.71,2.51S293.42,137.7,292.42,135.72Z"/><path class="cls-1" d="M293,147.53c.05.58.1,1.14.11,1.72l.85,1.26a6.33,6.33,0,0,1-.46-1.82C293.38,148,293.21,147.42,293,147.53Z"/><path class="cls-1" d="M285.47,119.66c-.34,0-.27,1.09-.5,1.44.41.41.79.85,1.17,1.28C285.91,121.5,285.15,120,285.47,119.66Z"/><path class="cls-1" d="M285,121.1l-1.82-1.87C284.32,121.17,284.76,121.39,285,121.1Z"/><path class="cls-1" d="M288.26,131.55c1,1,1.82,2.18,2.74,3.28-1-1.35-2-2.7-3.11-4Z"/><path class="cls-1" d="M279.94,111.5l1.42.77c-.78-.51-1.58-1-2.41-1.45Z"/><path class="cls-1" d="M275.77,106.47c1.15.45-.23-1.77.8-1.13a16.61,16.61,0,0,0-3.87-2.83A11.52,11.52,0,0,1,275.77,106.47Z"/><path class="cls-1" d="M270.64,101.3a21.2,21.2,0,0,0,2.06,1.21A9.78,9.78,0,0,0,270.64,101.3Z"/><path class="cls-1" d="M280.86,115.55a3,3,0,0,0-.46-2.15l-.11,1.32Z"/><path class="cls-1" d="M280.28,114.77v0l-1.22-1.79C279.22,113.16,279.59,113.71,280.28,114.77Z"/><path class="cls-1" d="M281,115.75l-.14-.2C280.84,115.67,280.85,115.74,281,115.75Z"/><path class="cls-1" d="M285.85,125.37c-1.16-1.06-3.12-3.44-2.27-.51C284.61,125.48,284.12,123.79,285.85,125.37Z"/><path class="cls-1" d="M280.84,117.37c.46.77.86,1.57,1.3,2.35.16-.17.17-.75.77-.26C282.21,118.76,281.55,118,280.84,117.37Z"/><polygon class="cls-1" points="279.85 116.46 280.84 117.37 280.32 116.52 279.85 116.46"/><path class="cls-1" d="M273.19,105.28a9.29,9.29,0,0,1-1.46-1.16c-.49-.44-1-.91-1.49-1.41,1,1.21,1.93,2.48,2.92,3.63C273.5,106.32,274.31,106.51,273.19,105.28Z"/><path class="cls-1" d="M276.7,109.85l-.19-.18C276.55,109.84,276.61,110,276.7,109.85Z"/><path class="cls-1" d="M259.93,93c0,.09,0,.17.07.27l.14-.08Z"/><path class="cls-1" d="M273.21,106.64a4.47,4.47,0,0,0,1.88,1.7c-.64-.61-1.28-1.26-1.93-2C273,106.34,272.93,106.38,273.21,106.64Z"/><path class="cls-1" d="M267.56,98.72c.32.55.71,1.13,1.1,1.76C268.46,99.85,267.88,98.71,267.56,98.72Z"/><path class="cls-1" d="M276.45,109.22l.13.11C276.49,108.92,276.45,109,276.45,109.22Z"/><path class="cls-1" d="M276.45,109.22a8,8,0,0,0-1.36-.88,14.17,14.17,0,0,0,1.42,1.33A1.47,1.47,0,0,1,276.45,109.22Z"/><path class="cls-1" d="M253.21,94.62c.32-.25,1.16-.07,2.12.46a6.74,6.74,0,0,1,1.45,1A7.14,7.14,0,0,1,258,97.66c2.27,1.17,2.79-1.83,2-4.43-.29.22-.46.41-2.84-.84.51.86,3.82,4.52,1.68,3.62a7.94,7.94,0,0,1-2.21-1.89,8.82,8.82,0,0,0-.84-1.5c.26.83-.83.43-2,0s-2.48-.72-2.6.07c.91.42,1.78.91,2.67,1.39C253.75,94.33,252.69,94,253.21,94.62Z"/><path class="cls-1" d="M263.77,96.63l.87.68A19.42,19.42,0,0,1,262.52,94c-1.65-.91-2.12-.93-2.38-.81,1.33,1.22,2.69,2.39,4,3.65Z"/><path class="cls-1" d="M268.18,100.73c-1.19,0-3.36-1.53-2.85.22,2.29,2.18,2.06,1.08,3.66,2.18-3.71-3.58,1.37.75-.86-2.3a27.32,27.32,0,0,1,2.11,1.88c-.57-.75-1.1-1.5-1.58-2.23l0,.13h0c.08.24.08.34,0,.11l-.09-.07a.82.82,0,0,1-.39.06c-.91-1.21,0-.33.39-.06a.33.33,0,0,0,.14,0s0,0,0,0c-1.3-1.17-2.72-2.2-4.06-3.3A44.29,44.29,0,0,0,268.18,100.73Z"/><path class="cls-1" d="M280.61,123.5c0-.17,0-.2.08-.24C280.43,123,280.3,123,280.61,123.5Z"/><path class="cls-1" d="M279.93,121.48a3.12,3.12,0,0,1,1.33,1.37c.34,1-.36.22-.57.41.59.48,1.86,1.82,1-.32l-.3-.24c-.84-1.87-1.37-4.69-1.08-4.46A7.35,7.35,0,0,0,279.93,121.48Z"/><path class="cls-1" d="M274.39,110.91c-1-1-2-2-3.05-3l.84,2.11.27-.37C273.85,111.62,273.92,110.9,274.39,110.91Z"/><path class="cls-1" d="M259.83,92.3l1-.32c-.91-.23-1.86-.39-2.78-.58Z"/><path class="cls-1" d="M255.31,88.89l.64-.5c-.49-.18-1-.33-1.5-.5Z"/><path class="cls-1" d="M94.24,236.2l.78.89A6.84,6.84,0,0,0,94.24,236.2Z"/><path class="cls-1" d="M90.26,228.72h-.45C90.18,229,90.4,229,90.26,228.72Z"/><path class="cls-1" d="M124.69,83.27c-2,.37-4.37.55-3.68,1.17l1,.42A8.82,8.82,0,0,1,124.69,83.27Z"/><path class="cls-1" d="M77,160.18l.35-.46c-.2-.48-.38-.94-.55-1.35C76.88,158.92,76.91,159.53,77,160.18Z"/><path class="cls-1" d="M80.31,162.07l-1,2.15A11.91,11.91,0,0,0,80.31,162.07Z"/><path class="cls-1" d="M126.15,269c.54,0,1.07,0,1.61,0C126,267.84,126.54,268.71,126.15,269Z"/><path class="cls-1" d="M202.27,67.31a23.64,23.64,0,0,0-3.91-1C200.24,67,201.67,68,202.27,67.31Z"/><path class="cls-1" d="M84.52,237.75c.52.6.84.8,1,.69C85,237.82,84.62,237.51,84.52,237.75Z"/><path class="cls-1" d="M193.73,65.9c.28.11.55.17.83.27a18.33,18.33,0,0,1,3.8.11A7.2,7.2,0,0,0,193.73,65.9Z"/><path class="cls-1" d="M273.81,241.39c.1-.08.2-.2.3-.27C274,241,273.93,241.17,273.81,241.39Z"/><path class="cls-1" d="M299.67,197.32c0,.52-.12,1.36-.21,2.16A9.09,9.09,0,0,0,299.67,197.32Z"/><path class="cls-1" d="M236,76.79c1.11.47.22,0,0,0Z"/><path class="cls-1" d="M239.61,82.46a.64.64,0,0,0-.61.16A.83.83,0,0,1,239.61,82.46Z"/><path class="cls-1" d="M182,71.1h-.1C182.21,71.26,182.15,71.23,182,71.1Z"/><path class="cls-1" d="M237.47,78a11.61,11.61,0,0,0-1.25-.93A14.45,14.45,0,0,0,237.47,78Z"/><path class="cls-1" d="M237.44,77.47l.9.56C238.54,78,238.46,77.83,237.44,77.47Z"/><path class="cls-1" d="M234.48,76.14a15.68,15.68,0,0,1,1.74.88c-.19-.15-.26-.23-.19-.23Z"/><path class="cls-1" d="M200,289.54a2.27,2.27,0,0,1,.25.06C201.34,289.1,200.86,289.22,200,289.54Z"/><path class="cls-1" d="M107.29,109.17a1,1,0,0,0,0-.12l-.13.09Z"/><path class="cls-1" d="M105.13,112.55a4.32,4.32,0,0,1,2.08-3.41c-.91-.24-1.85-.5-2.76-.72C104.66,109.82,104.89,111.2,105.13,112.55Z"/><path class="cls-1" d="M106.38,252.4l-1.21-2.59c3.14,1.67,4.35,3.71,3.5,1.07-.57.38-1.3.09-2.12-.56a16.58,16.58,0,0,1-2.55-2.64,25.51,25.51,0,0,0-2.49-2.73c-.75-.71-1.45-1.09-2.06-.77l-.58-1.81c.28.43.45.41.73.84-1-3.59-3.12-1-5.32-5.14-.67-1.48-.85-2.66,0-1.87l-2.36-2.76c-.46-.93.07-.93.54,0-1-1.54-1.79-3.15-2.7-4.72h.09a21.07,21.07,0,0,1-2.66-2.52c-.22-1.43.55.52.71.05-.61-.83-1.25-1.66-1.84-2.51.1-.72.53-.55,1,0a8.64,8.64,0,0,1,1.52,2.52c.66-1.84.25-2.31-.45-3.13a8.47,8.47,0,0,1-2-5.1c.41.85.89,1.67,1.33,2.51a6.09,6.09,0,0,0,0-3.28,26.28,26.28,0,0,1-.58-4.07c-.25.81-.26,6.77-1.94,3.93a7.38,7.38,0,0,0-1.47-3.63c.92-.3.23-1.87-.41-3.92l1.28-.19a5.67,5.67,0,0,0-1.23-1.84A6.21,6.21,0,0,1,82,206.42c-.47-2.56.38-3.28,1.11-4-.52-4.07-1.06,3.1-2.16-1.66a18.18,18.18,0,0,0-.24-2.43A22,22,0,0,0,80.3,196c-.35-1.52-.93-3.1-1.43-5.14.26-2.46.82.36,1.12-.54l-1.19-2.07c0-.53.31-.37.48-.3-.49-1.78-1.3-.07-1.73-2.94-.7-.37-.27-1.87.24-3.69s1-3.95.35-5.77c.43-.85.75.47,1.27.23-.34-2.43-.45-3.49-.62-4.45s-.3-1.79-.76-3.88c.42-1.1.83-2.19,1.33-3.26-1.39,2.32-2-1-2.35-4a24,24,0,0,0-1.44,2c0-1.56.08-3.14.24-4.7.33-.5.65.05,1,.9,0-.32-.06-.64-.11-.89.84-1.51,1.36-.49,1.8.8-.39.48-.77,1-1.14,1.44.56,1.27,1.22,2.45,2,2.36a4.8,4.8,0,0,1-.08-1.51c.15.32.31.54.45.43s0-.64-.2-1.42l1.63-.69-.5-.36c.72-1.84,1.43-3.66,2.29-5.43-.06-1.09-.18-2.18-.28-3.29s-.11-2.24-.12-3.46a21.34,21.34,0,0,1,.29-3.88A26.26,26.26,0,0,1,83.93,138c.26,2,1.42,1,2.52,1.58-1,.57-1.3,1.85-1.61,3.33l-.46,2.36a11.53,11.53,0,0,1-.7,2.45c.7-1.66,1.13-1.09,1.18-.59.23-2.07.68-4.08,1-6.15.88.51,1.17-.92,2.24-2.19-1.17.14-1-1-.48-2.57a22.06,22.06,0,0,1,1-2.43,14.85,14.85,0,0,0,.82-2.22c.67.18,1,1-.53,3.66a3.74,3.74,0,0,0,1.35-3.63,3.77,3.77,0,0,1,1.31-3.63c-.36.65-.65,1-.5,1.38a9.87,9.87,0,0,1,1.59-3.18c.68-1,1.38-1.47,1.35-.9l-.39.63c.72-1,1.58-2.3,2.46-3.71s1.9-2.82,2.74-4.22c1.77-2.72,3.09-5.16,2.69-6a8.22,8.22,0,0,1,1.24,2.26,104.66,104.66,0,0,1,1.72-10.52c.52,1.58,5.08,1.84,2.85,5.37a13.44,13.44,0,0,0,3.51-3.69c-.73.39-2.94-.1-2.24-1,3.35-.92,2.12-.88,5.8-2.35-1.12.55-1.64-2-.12-3.24,0,.45,1.59,1.61,1.23,2.24l1.06-2.41c.36-.8.76-1.56,1.16-2.36-.69,1.06,1,1.61,2.24,1.47-.33,0,.48-.64,1.47-1.38a27.56,27.56,0,0,0,2.69-1.94l-1.93.74a8.46,8.46,0,0,0,3.55-4.23,8.06,8.06,0,0,1,3.71-4.21A1.74,1.74,0,0,0,132,88.87a28.18,28.18,0,0,1,1.74-4.77,14.61,14.61,0,0,1,4.58-5.72l1.13.21c1.05-.75,2.1-1.52,3.19-2.19-.79,1.19-2.29,3.39-3.86,5.53-.8,1-1.56,2.21-2.3,3.22s-1.43,1.91-2,2.63c2-.46.86.43,3.47-1,1.2.08-1,1.57-1.76,2,2.09-.92,4.16-1.87,6.3-2.64-.42-.55.64-1.39,1.72-2.22s2.25-1.53,1.92-2c-2.2,1.3-4.26,2.84-6.34,4.26-.43-.54.15-1.85,1.44-3.26a13.3,13.3,0,0,1,2.45-2.1,15.48,15.48,0,0,1,3.3-1.58c1.37,0,0,2.58.23,3a6.93,6.93,0,0,1,2.25-1.47,6.56,6.56,0,0,1,2.37-.78L150.1,81.3a7.41,7.41,0,0,0,3.3-1.68,5.6,5.6,0,0,1,3.94-1.1c1.12-.27,3.69.83,3.69,0-2.13-1.08-3.74-5.58-2.74-7,.22,0,1.85,0,3.59.06a19.13,19.13,0,0,1,4.33.54c2.09.85-2.31,3.33-.52,4.06,0-.37.95-1,1.35-1.22,1.24.09-.29,1.21,2.24.58.23-1.41,5.29-.55,1.06-1.3a8,8,0,0,1,2.68-.35,24.94,24.94,0,0,0,3-.08c-.52-.4.08-1.2,1.17-2a10.24,10.24,0,0,1,4-1.76c-.14.35.47.79.76,1,1.34,0,2.53,0,3.63.07s2.12.22,3.13.32l3,.32c1.05.15,2.15.27,3.39.37.44.35,2.78,1,1.7,1.45a6.92,6.92,0,0,1,3-.37c2.77,1.54-3.38-.25-1.33,1.44.27-.74,4-.66,6.24-.69-.22-.65-1.45-1-2.92-1a39.51,39.51,0,0,0-4.23.25c.08-.84,1.11-1.58,2.82-2.12a16.25,16.25,0,0,1,3-.63,32.67,32.67,0,0,1,3.77-.09c2.15.15,2.53.59,2.49.87s-.51.51-.13.47a18.09,18.09,0,0,0,4.48.71,16.11,16.11,0,0,0,2.82-.13c1.65-.18,3.16-.31,6.13,1.37,2.16,1.87-.59,2.06-.29,3a14.13,14.13,0,0,1-3.91-1.5,16.13,16.13,0,0,0-3.12-1.36l2.6,1.27a10.68,10.68,0,0,1-4.51-1,10.5,10.5,0,0,0,2.84,1.28c.68.23,1.45.47,2.26.73l2.57.91c.89.31,1.82.61,2.73,1l2.69,1.13a29.3,29.3,0,0,1,4.64,2.43c1.12.11,3,.54,2.36-.21L232,80.71c-1.26-1.52,3.81.41,1.76-1a34.76,34.76,0,0,1,4.19,1,18.76,18.76,0,0,1,2.26.88,15.36,15.36,0,0,1,2.23,1.42v1.41c.11-.35-1.73-1.84-2.81-2,.8.14,1.83,1.21,2.91,2.16a10.12,10.12,0,0,0,1.68,1.23,2.36,2.36,0,0,0,1.68.37c-.57-.69-1.13-1.42-1.75-2.08,1.31.38,2.78.82,4.31,1.36a11.9,11.9,0,0,1,4.25,2.43c-.54-1.87-.68-.34-1.84-2.87.76,2.57-7.17-4.67-5.36-1.32a6.77,6.77,0,0,0-2.37-2.69,16.5,16.5,0,0,1-3.05-2.76c-.09.4.65,1.2-1.76-.26a3.24,3.24,0,0,1-.71,0l-.16-.12.12.12c-.13,0-.15,0,0,0a3.54,3.54,0,0,1,1,1.19,10.4,10.4,0,0,1-3.61-.85,26.21,26.21,0,0,0-3.56-1c-1.41-.85.81-.14.17-.9-.77-.1-1.54-.17-2.33-.21.15-.91-3.54-3,.3-2l-3.27-1.34a16.3,16.3,0,0,0-6.27-2.47c-1.56-.64-4.33-.19-2.74-.47-.92-.16-1.83-.34-2.74-.48l-2.76-.35v-.23a56.87,56.87,0,0,0-8.37-1.13,36,36,0,0,1-8.89-1.61c-.92,0-1.86.09-2.95.09a27.22,27.22,0,0,1-3.86-.16l-.59-.79c-1.18.07-3,0-4.58-.14s-3.07-.12-3.55.35a5.73,5.73,0,0,0-3-.74c-.64,0-1.34,0-2.06,0s-1.49.18-2.26.3c-1.53.26-3.11.51-4.56.84a29.62,29.62,0,0,1-3.82.69l0,1a28.45,28.45,0,0,0-4.2,1.07c-.71.22-1.44.46-2.2.72s-1.53.62-2.35,1l.44.81a22,22,0,0,1-5.39,1.6c-1.07.24-2.19.47-3.34.75a28.72,28.72,0,0,0-3.38,1.16c.18-.44,1.35-.81,2.23-.93a12.46,12.46,0,0,0-4.35,1,29.81,29.81,0,0,0-3.92,2.24c-1.28.78-2.46,1.7-3.68,2.42a15.44,15.44,0,0,1-3.78,1.63,6.05,6.05,0,0,1-2.74,1.56,1.11,1.11,0,0,0,.26-.2,4.88,4.88,0,0,0-.47.26,15,15,0,0,0-1.79.54,11.8,11.8,0,0,0,1.54-.4,27.56,27.56,0,0,0-3.2,2.45L122,84.86l-.28.21c-1.43.5-.73,1,.32,1.19a8.18,8.18,0,0,0-1.28,1.59c-.93-.3-1.65.38-2.41,1.07a3.47,3.47,0,0,1-2.71,1.25c-.15.64-1.53,1.91-2.8,3.25s-2.34,2.86-2.07,3.75c-.18-.13-.58.07,0-.45a9.66,9.66,0,0,0-3.42,3.26l-1.35-.4-.72,1.83-.65,1.86c-2,1-3,1.42-2.16-.8-.64,1.2-1.13,2-1.5,2.63s-.65,1.06-.91,1.46a19,19,0,0,0-1.88,3.7l-.47-.67c-1,1.27-1.68,3.9-2.79,4.25A14.17,14.17,0,0,0,91.79,117a30.66,30.66,0,0,0-1.88,2.61l-2,3.06c-2.64,4.37-5.36,9.48-7.79,13.43,1.44-.34.74.51-.08,1.61s-1.75,2.47-1,3c-.71.29-1.47,1.39-1.37-.18a41.9,41.9,0,0,1-2,5.38,7.75,7.75,0,0,0-.68,4.61c-.68.37-.5-1.19-1-.82,0,.4.05,1.58-.4,2s-.26-.78-.28-1.58a12.2,12.2,0,0,0-.46,2.87,4.36,4.36,0,0,0,.39,1.79,3.65,3.65,0,0,0,1.94,1.64,7.83,7.83,0,0,0-1.12,2.73,5.42,5.42,0,0,0,.44,2.54c-.66.72-1.45,2-1.11-.93-.1.4-.29,1.23-.53,2.23-.12.51-.24,1.06-.37,1.63s-.19,1.17-.27,1.75c-.32,2.34-.46,4.51.21,4.66a5.46,5.46,0,0,0-.16,2.74c-.19,1.85-.3,2.86-.33,3.86s-.07,2,0,3.82l.23-1c1.47,1.45.34,3,.6,5.94l-.16-.08a16.71,16.71,0,0,0-.23,3.41,6.53,6.53,0,0,0,.2,1.39,5.81,5.81,0,0,1,.17,1.39c0,.34,0,.76,0,1.31s0,1.22-.09,2.07l.91-.47c1.06.18.94,1.65.72,3.56s-.36,4.27.37,6.09L75,203.5c.5,1,.16,2.51-.31,4.14S73.59,211,73.79,212c0,.5-.5-.64-.78-1.24.35,5.78,1.41.39,2.83,4.33-.42.93-2-.46-1.23,2.29,0,.76,1.14,2.56,2.34,4.63a27.25,27.25,0,0,1,1.8,3.2,12.68,12.68,0,0,1,.63,1.63,7.64,7.64,0,0,1,.35,1.55c.13-1,.27-1.94,1.42-.34.72,1.29,1,3.35,1.67,5.23s1.37,3.72,2.79,4.46c.06.4,0,.59-.09.67.77.87,1.78,2.41,2.92,3.74a12.3,12.3,0,0,0,3,2.84c-.43.9,0,2,.77,3.19a21.93,21.93,0,0,0,3.11,3.58,41.87,41.87,0,0,1,3,3.1c.73.88,1,1.61.43,2.1.79.85,1.55,1.73,2.36,2.57l2.47,2.46-.35.09a15.22,15.22,0,0,0,3.68,3.23,9.68,9.68,0,0,0,2.63,1.13c.64.83-.12.55-.29.61a27.62,27.62,0,0,0,4.93,4.54,23.56,23.56,0,0,0,5.48,2.5l-.11,1.13a6.32,6.32,0,0,1,1.79,1.26c.8.69,1.84,1.52,3,2.47.58.46,1.2.95,1.85,1.43s1.36.9,2.08,1.33a18.69,18.69,0,0,0,4.52,2.09,1,1,0,0,1-.84.07c3.46,1.17,7,3.63,10.4,5.38s6.41,2.85,8.2,1.55c1.58.26,3.19.34,4.77.5-5.74-1.92,1.3-1.26-.92-2.52a9.45,9.45,0,0,1,3.29,1.45c.76.51.87.94-.56.65l-.39-.29c-1.55,1.62,7.14,2.41,6.74,3.56a177.93,177.93,0,0,0,17.64,2.53l4.38.3c1.46.05,2.91.06,4.36.08s2.89,0,4.32-.1,2.86-.11,4.27-.3c-.48-.43-1-.85-1.44-1.31,1.3-.09,2.6-.26,3.9-.39,1.06.21,1.53,1-1.28,1.26,1.59.64,4.6-1.29,4.61-1.66,5.52-.39-1.84,2.06-.18,1.8l2.26-.52-.54-.07c.87-.46,1.31-.86,1.95-1.2a7.48,7.48,0,0,1,1.19-.48,14.16,14.16,0,0,1,2-.52c2.14-.19,1.27.63,2.11.5,0,.1.31.08,1.27-.25,1.63-.38,3.23-.82,4.85-1.23l-2.24-.56c2-1.14,4.48-1.24,1.92-1.85,1.88.48,6.35-.77,10.47-2.47,2.08-.82,4-1.83,5.63-2.53a20.22,20.22,0,0,1,3.31-1.45,19.43,19.43,0,0,1,1.83-1.48c.62-.48,1.26-.94,1.93-1.38,1.35-.88,2.84-1.66,4.43-2.66-.92.3-2.06-.51.71-2.09.22,1.42,1.66.92,3.36,0s3.78-2.26,5.38-2.35c-1.31.22.46-1.27,2-2.71s2.89-2.94.94-2.42c2.17-1.6.77.66,2.74-.21,1.07-1.23,2.23-2.47,3.51-3.68.63-.61,1.32-1.2,2-1.81l2-1.9c.69-.64,1.42-1.26,2.1-1.94l2-2.09a35.23,35.23,0,0,0,3.8-4.59c-.2-.31-1.44.41-.81-1.25,1.35-.72,2.6-1.55,3.91-2.36a3.55,3.55,0,0,0,.22-1.9c0-.61.29-1.26,1.57-2.15-.47.19-1.17.45-.69-.5,5-6.05,8.38-13.41,11.11-20.9s4.86-15.18,7.72-22.82c-1.05,2-.86.58-.6-1-.34,1-.85-.16-1.36,0,.71-2.11,1.47-4.25,2.12-6.42-.61-.67-.5-2.43-.38-4.14s.09-3.36-.51-3.72l.17,2.1c-.72-1.43-1.55-.47-2.49.72s-2,2.62-3,2.35a4.09,4.09,0,0,1,.16,2.58,23.43,23.43,0,0,1-1,3c-.76,2.12-1.64,4.38-.88,7-.57,1-.45-1-1-.54.62,1.37.41,2.86-.55,5.46l-.13-.35a41,41,0,0,1-1.34,4.93,35.29,35.29,0,0,1-1.59,4.08c-.57,1.32-1.16,2.66-1.93,4.11s-1.51,3.12-2.55,5l1.12-.19a10,10,0,0,1-1.88,2.55c.42,2.56,2.22-4.71,2.87-2.29a6.42,6.42,0,0,0-2.07,2.5c-.68,1.19-1.47,2.6-2.2,4a26.28,26.28,0,0,1-2.33,3.76c-.77,1-1.49,1.71-2.2,1.76-1.54,2.38,1.38-.12-.16,2.27l-.91.31.25,1c-1.11,1.52-2.32,1.82-2.75,1.6a10.26,10.26,0,0,0,.86-1.53,13.34,13.34,0,0,0-2.67,3.46,14.78,14.78,0,0,1-1.81,2.65c.65-.64,1.32-1.27,2-1.92-1.08,1.6-2.27,3.27-3.59,4.89s-2.72,3.24-4.22,4.76l-2.17,2.34c-.74.74-1.48,1.49-2.19,2.24-1.39,1.53-2.82,2.92-4,4.4l.72,0c-.48.55-.89,1-1.28,1.39s-.73.66-1.05.91a14.21,14.21,0,0,1-1.69,1.11,31.65,31.65,0,0,0-4.72,3.19l.13-.22a11.57,11.57,0,0,1-3.58,3.11c1.06-1.3-3.07.76-1.61-.86-2.41,2-3,2.48-3.33,3a10.2,10.2,0,0,1-1.77,2.65l-1.2-.22a13.2,13.2,0,0,1-1.15,1.48,9.71,9.71,0,0,1-2.55,1.71c2.11-1.65-2.33-.19,0-2.15a15.44,15.44,0,0,0-4.17,1.38,31.52,31.52,0,0,0-3,1.6c-1.74,1.07-3.18,1.76-5,1.12-1.11,1.46.33,1.27,1.89.84s3.16-1.23,2.44-.69c.79.05.34.64-.57,1.29a11.77,11.77,0,0,1-3.37,1.5c-1,.33-2.1,0-3.55-.27a11.48,11.48,0,0,0-2.48-.22,12.72,12.72,0,0,0-1.53.15,15,15,0,0,0-1.79.31c.51-.11.51-.27,1-.38a7.64,7.64,0,0,0-2.89.72,9.38,9.38,0,0,1-1.53.47,5.51,5.51,0,0,1-1.77,0c-1.12,1.46-3.11.48-3.26,2.12l4.77-1.23c-1.32.45-2.55,1.24-4.05,1.92a11.72,11.72,0,0,1-5.65,1,10,10,0,0,1,2.54-1.31c-1.39-.31-2.53.68-4,.3.13-.78,1.59-1,3.37-1.32.89-.13,1.87-.26,2.78-.46a9,9,0,0,0,2.45-1c-.76-.22-2.07.34-3.07.63s-1.66.39-1-.55c-.9,1.21-2.22,1.31-3.7,1.37a9.15,9.15,0,0,0-4.91.88l.18-1a8,8,0,0,1-2.75.69l1.83-1.28c-2.85,1.11-5.56-.72-8.29-.28,2.88.06,3.2.34,3.11.71s-.61.86.63,1.18c-7.26,1.13-4.1-2.43-12-2.6,1.07,0,4,.88,2.26,1.2a19.44,19.44,0,0,1-2.41-.62,8.39,8.39,0,0,1-1.91-.89c-5.24-.47.68,1.07-1.63,1.36-1.63-1.34-2.64.07-5,0l.16-.95a14.38,14.38,0,0,0-1.77-.41,4.74,4.74,0,0,0-1.07-.11,1.39,1.39,0,0,0-1,.43c-.42.4-.78.8-3.38-.18l2.58-.78c-.95-.11-1.91-.18-2.86-.32l.84-.91a13.68,13.68,0,0,1-3.56-.42,19,19,0,0,1-3.27-1.3c.45.88-.92,1.54-3.51.7-1.54-1.17,1.26-.47-2.34-1.74a2.94,2.94,0,0,1,3.4.78c.27-.25,1-.31,1.27-.54-1.65-1.2-4.54-1.85-5.83-2.34a5.94,5.94,0,0,1,1.29.75c-.92-.13-1.87-.24-2.8-.39l-2.79-.53c-.64-.69.11-.67.85-.65-1-.38-2-.24-3.47-.92.73-.51,1-1.25,3.22-.65-1.7-.41-3.36-1-5-1.51-.16-.45-1.92-2-1.18-2a16.29,16.29,0,0,0-4.64-2.09,15.34,15.34,0,0,1-5.07-2.83,3.16,3.16,0,0,1-1.38-.48c-.71-.56-1.37-1.14-2-1.72s-1.25-1.24-1.91-1.83a21.94,21.94,0,0,0-2.13-1.73,15.71,15.71,0,0,0-2.59-1.62c-.29-.89-.61-1.74-.86-2.65-2.63-2.06,1.18,3.58-3.23.11-3.18-2.43-.23-1.87-.93-3.13a25.53,25.53,0,0,1-3.54-2,9.82,9.82,0,0,1-3.24-4A22.66,22.66,0,0,1,106.38,252.4ZM85,217.23c.23.35.61.85.9,1.35a1.65,1.65,0,0,1,.37,1.37C84.89,219.5,85.12,218.64,85,217.23Zm-4.78-62.78a3.79,3.79,0,0,1-.8,2.51A6.82,6.82,0,0,1,80.22,154.45Zm143.34-81.9h-.1C221.73,71.58,222.34,71.94,223.56,72.55Zm3.65,1.77c.43,0,.45-.11.34-.3a4.29,4.29,0,0,1-2.14-.63C225.6,73.73,226,74.09,227.21,74.32ZM213.33,293.65l-.82-.07C214.16,292.92,213.74,293.27,213.33,293.65Z"/><path class="cls-1" d="M79.93,161.84a.86.86,0,0,1-.57.24C79.46,162.43,79.64,162.47,79.93,161.84Z"/><path class="cls-1" d="M125.86,269l.09.08a.28.28,0,0,0,.2-.07Z"/><path class="cls-1" d="M167.25,76.44a4.31,4.31,0,0,1-1.56-.23C165.7,76.45,166.08,76.58,167.25,76.44Z"/><path class="cls-1" d="M247.18,82.39c-.76-.41-1.58-.75-2.37-1.12a5.44,5.44,0,0,1,1.86,1.47C246.74,82.51,246.49,82,247.18,82.39Z"/><path class="cls-1" d="M261.18,100.51c.35.16.57.52.91.68l.24-.39C261.18,99.74,260.15,99.26,261.18,100.51Z"/><path class="cls-1" d="M247.48,86.39c-.28.82,1.25,1.37,2.77,2.31a2.48,2.48,0,0,1-.26-.19c.54-.31.36-.67-.16-1A13.89,13.89,0,0,0,247.48,86.39Z"/><path class="cls-1" d="M250.6,88.91a12,12,0,0,1,1.35.94C252.39,89.6,251.46,89.38,250.6,88.91Z"/><path class="cls-1" d="M232.16,75.77c.7.54.91-.73,1.23-.22.65-.28-.8-.59-1.83-.64-.52,0-.94,0-.94.15S231,75.4,232.16,75.77Z"/><polygon class="cls-1" points="247.22 89.4 247.24 88.22 245.98 88.37 247.22 89.4"/><path class="cls-1" d="M235.65,81.86,238,83.39c0-.17.41-.1.83,0C237.32,82.61,235.72,81.57,235.65,81.86Z"/><path class="cls-1" d="M238.84,83.43a9.15,9.15,0,0,0,2,1A14.84,14.84,0,0,0,238.84,83.43Z"/><path class="cls-1" d="M243.86,87.6l-.59-.61-1.66-1C242.36,86.5,243.14,87,243.86,87.6Z"/><path class="cls-1" d="M207.26,72l-3.06-.26c-.36.29.42.64,1.56.7C206.52,72.36,207.66,72.43,207.26,72Z"/><path class="cls-1" d="M215.52,76.81c-.72-.42-.71-.65-1.07-1.09L214,76.89Z"/><path class="cls-1" d="M207,75.05c-.37.29-4.41.22-.71.8C206.65,75.55,209.63,75.85,207,75.05Z"/><polygon class="cls-1" points="162.08 73.97 162.82 73.78 162.29 71.82 162.08 73.97"/><path class="cls-1" d="M128,93.51c3.14-1.43,0-1.51,3-2.65.43-.85-2.42.93-1.94.14C127.48,92.56,126.41,92.9,128,93.51Z"/><path class="cls-1" d="M129,91c.24-.25.49-.53.74-.84A5.11,5.11,0,0,0,129,91Z"/><path class="cls-1" d="M301.61,188.65c.22-.79.35-1.59.52-2.39l-.73,1.53C301.48,188.08,301.54,188.36,301.61,188.65Z"/><path class="cls-1" d="M300.25,184l1.31-.55L300.42,182A3.8,3.8,0,0,1,300.25,184Z"/><path class="cls-1" d="M85.66,210.63l-.35-.08c-.23.42-.12.92.11,1.92Z"/><polygon class="cls-1" points="96.78 237.9 96.53 237.45 96.05 238.89 96.78 237.9"/><path class="cls-1" d="M113.45,256.16c-.7-.71-1.7-1.38-2.36-2.15C112.72,255.46,112.64,257.39,113.45,256.16Z"/></g></g></svg>