<svg xmlns="http://www.w3.org/2000/svg" viewBox="0 0 401.43 321.22"><defs><style>.cls-1{fill:#4a6f95;}</style></defs><title>textlogo07</title><g id="レイヤー_2" data-name="レイヤー 2"><g id="レイヤー_1-2" data-name="レイヤー 1"><path class="cls-1" d="M85.26,322.23c-.48,1.47.25.43,1,.17Z" transform="translate(-0.14 -3.59)"/><path class="cls-1" d="M86.26,322.4l.71.13A.65.65,0,0,0,86.26,322.4Z" transform="translate(-0.14 -3.59)"/><path class="cls-1" d="M92.82,322.51c-1.31,1.39-3.31,0-4,1.87a3.3,3.3,0,0,0,2.61.13A2.24,2.24,0,0,0,92.82,322.51Z" transform="translate(-0.14 -3.59)"/><path class="cls-1" d="M90.44,321.76l-.06.95c.37-.54.74-1.07,1.09-1.63C91.13,321.32,90.79,321.54,90.44,321.76Z" transform="translate(-0.14 -3.59)"/><path class="cls-1" d="M89.4,321l.23.32c.63-.41,1.26-.78,1.87-1.22C90.81,320.46,90.11,320.72,89.4,321Z" transform="translate(-0.14 -3.59)"/><path class="cls-1" d="M97.94,322.3c-.47.19-1,.37-1.43.54-1.62-1,.6-1.85-.49-2.54-1.82.32-.15,2.73-2.55,2.71.39,1.15,3.72-.64,3.7,1.28C99.25,324.49,97.05,323.18,97.94,322.3Z" transform="translate(-0.14 -3.59)"/><path class="cls-1" d="M168.14,271a2.13,2.13,0,0,0,.27,0C168.21,270.88,168.05,270.83,168.14,271Z" transform="translate(-0.14 -3.59)"/><path class="cls-1" d="M182.39,252.38a3.68,3.68,0,0,0,.89-.53,1.73,1.73,0,0,0-.64,0Z" transform="translate(-0.14 -3.59)"/><path class="cls-1" d="M159.87,283.73a5.76,5.76,0,0,0-1,.25A1.09,1.09,0,0,0,159.87,283.73Z" transform="translate(-0.14 -3.59)"/><path class="cls-1" d="M240.31,154.26a1.6,1.6,0,0,0,.51.25l.05,0-.44-.37Z" transform="translate(-0.14 -3.59)"/><path class="cls-1" d="M194.62,229.11a3.57,3.57,0,0,0,.37-1C194.65,228.62,194.57,228.91,194.62,229.11Z" transform="translate(-0.14 -3.59)"/><path class="cls-1" d="M153.33,289.3a2.27,2.27,0,0,0,.28-.21,1.57,1.57,0,0,0-.46.12l.16.1Z" transform="translate(-0.14 -3.59)"/><path class="cls-1" d="M175.69,256.75a2.22,2.22,0,0,0,.7-.51A1.87,1.87,0,0,0,175.69,256.75Z" transform="translate(-0.14 -3.59)"/><path class="cls-1" d="M120.84,317.82a1.12,1.12,0,0,0,1-.58C121.45,317.08,121.11,317.17,120.84,317.82Z" transform="translate(-0.14 -3.59)"/><path class="cls-1" d="M129.06,314.08s0,0-.05,0C129.16,314.3,129.16,314.24,129.06,314.08Z" transform="translate(-0.14 -3.59)"/><path class="cls-1" d="M134.31,311.7a.71.71,0,0,1-.07.09C134.37,311.91,134.42,311.92,134.31,311.7Z" transform="translate(-0.14 -3.59)"/><path class="cls-1" d="M121.81,317.24c1,.42,2.09,2.55,2-.25l-.31-.26c.77.34,1.17-.94,1.75-1.27a3.87,3.87,0,0,0-.48-.5,9.44,9.44,0,0,1-1.45.3C122.34,315.06,122.33,316.42,121.81,317.24Z" transform="translate(-0.14 -3.59)"/><path class="cls-1" d="M168.43,271.38c-.41-.28-.62.3,0,0Z" transform="translate(-0.14 -3.59)"/><path class="cls-1" d="M164.65,277.9c.19-.14.39-.28.57-.44A.87.87,0,0,0,164.65,277.9Z" transform="translate(-0.14 -3.59)"/><path class="cls-1" d="M142.87,294.47a1,1,0,0,1,.17,0C142.92,294.24,142.85,294.33,142.87,294.47Z" transform="translate(-0.14 -3.59)"/><path class="cls-1" d="M165.71,277a4.15,4.15,0,0,1-.49.45A.67.67,0,0,0,165.71,277Z" transform="translate(-0.14 -3.59)"/><path class="cls-1" d="M150.42,290.9h.13A.15.15,0,0,0,150.42,290.9Z" transform="translate(-0.14 -3.59)"/><path class="cls-1" d="M278.31,48.53c-.08.56-.82.45-1.26.75.91,1.85,1.21-1.88,1.7.28a2.23,2.23,0,0,0,.22-1.29l-1.74-.3C277.27,49.13,278,47.72,278.31,48.53Z" transform="translate(-0.14 -3.59)"/><path class="cls-1" d="M245.16,148l-.19.22c.77,0,1,.18,1.55-.67-1-1-2.89-.13-3.85-1.76a1.42,1.42,0,0,1-.29,1C243.49,146.44,244.43,147.21,245.16,148Z" transform="translate(-0.14 -3.59)"/><path class="cls-1" d="M242.38,146.8l-.09,0a1.76,1.76,0,0,0-.44.12,1,1,0,0,1-.3.5A1.52,1.52,0,0,0,242.38,146.8Z" transform="translate(-0.14 -3.59)"/><path class="cls-1" d="M269.6,63.31l-.37.48C269.63,63.66,269.69,63.5,269.6,63.31Z" transform="translate(-0.14 -3.59)"/><path class="cls-1" d="M211.61,241.44a7.24,7.24,0,0,0,0,.95A1.09,1.09,0,0,0,211.61,241.44Z" transform="translate(-0.14 -3.59)"/><path class="cls-1" d="M240.59,161a2.31,2.31,0,0,0-.42.6,3.46,3.46,0,0,1,0,.43Z" transform="translate(-0.14 -3.59)"/><path class="cls-1" d="M233.77,113.91c1.75.81-.08-.39,1.15-1.14l-.82-1.06A4.75,4.75,0,0,0,233.77,113.91Z" transform="translate(-0.14 -3.59)"/><path class="cls-1" d="M279.1,48.29a.6.6,0,0,1-.13-.09v.07Z" transform="translate(-0.14 -3.59)"/><path class="cls-1" d="M238.68,87.44a4.19,4.19,0,0,0,.36-.38A.89.89,0,0,0,238.68,87.44Z" transform="translate(-0.14 -3.59)"/><path class="cls-1" d="M240.48,151.82c-.27,1.11-.55,2.21-.85,3.31l.68-.87C239.53,153.6,241.48,152.53,240.48,151.82Z" transform="translate(-0.14 -3.59)"/><path class="cls-1" d="M230.15,127.92,229,128c1.79,3.73-2.33,6.81.51,10-4.7,3.16,3,3.29-1.24,6.2h.58c-1.59,5.84-3.58,11.74-5.49,17.46-.9,2.89-1.89,5.68-2.6,8.51a68.76,68.76,0,0,0-1.87,8.34l-.74-.28c-.91,2-1.71,4.07-2.58,6.08s-1.7,4-2.53,6-1.75,4.07-2.6,6.12l-2.63,6.08a175.82,175.82,0,0,1-12.1,23.47c-.21,1.79,1.82,1.82,1.84,3.51-.38.5-1,1.76-1.86,1.25.16-1.31-.93-1.17-1-1.72a21,21,0,0,1-2,2.61,4.46,4.46,0,0,0-1.24,2.85l1.87-.58c.08.87-.81,1.6-1.2,2.1-.4-.58-2-.56-2-1.18.64,4.87-2.73,1.68-3.42,5a7.22,7.22,0,0,1,1.44,4.44c.12,1.79,0,3.73,0,5.38l-1.38.71c1.1-1.48-1.59-1.13-.17-2.9-1.71,1.1-1.85,3.17-3.27,4.34a1.3,1.3,0,0,1,1.2,1.49c-1,.66-2.08-.08-2.95.83l.08-1.5c-1.29.05-.69,1.43-1.05,2.13-1-.5-2.36.82-3.13-.22.15,2.25-.86,2.2-1.28,4.18,2.12-.67.82,1.31,1.67,1.76.35-.64.7-1.27,1-1.93-2.47,1.86.47-.88-1.17-1.92,1.57-.54,1.24,3.51,2.49,1.47-1,2.85-2.11,2.71-2.78,6,.88-1.58.73,1.07,1.79.73-1.41,1.77-.87,0-2.25-.29-.75,1-1.87.57-1.57,2.34-1.75,1.08-.87-1.18-2.12-1-.25-.72,1-1.43,1.8-2.32s1.25-1.89-.52-3.06c.62-.8.19-2.76,1.18-3.81-1.24.62-3.46,1.07-3.73,2.88l1.74,1.61c-.72.95.33,2.2-.41,2.7-.2-.79-1.51-.85-2,0,.43,0,.63-.31.87,0-1.06,1.43,0,2.7-1.14,4.6,1.64-.89,2.41-.68,4.29-1.23.94,1.45-.61,1-1.12,1.9-.07-.26,0-.44-.4-.45l-.11,1.32c-2,1.14-1.57-1.83-3.41-1.07-1.88-.06-.62,1.78-1.86,1.92a4,4,0,0,0,.43.16,1.76,1.76,0,0,1-.41.26l.09.07c-.64,1-1.59,1.83-1,2.93-.49-.32-.62.83-.63,1.37-.12.81-.24,3-2.32,2.21,0,0,0,0,0-.06-1.21.86-2.51,1.13-2.72.43l-2.07,1.21-.9-1.37c-1.27,1.74-.47,2.32-.5,4.52-1.8.26-3.31,2.6-3.74,3.69a1.61,1.61,0,0,0-.66.54l1.1-.06c-1.36,1-.67,1.53-1.55,2.23.28,0,.36,0-.28.21-.17.09-.35.2-.58.3-.06-.17.15-.31.4-.39l-.49-.3c-2.1-.53-1,2.06-2.56,2.42a1.16,1.16,0,0,1,.32-.43c-.92.13-3.2-1-2.64.28-.26,0-.32.36-.34.8l-.62.15a3,3,0,0,1,.62-.14c0,.6,0,1.27-.22,1-.6.33-1.23.64-1.85.94-.46,0-.79.48-1,.91l-.67-.36c-.56.5-.79.17-.82,0-3.39-.49-2.73,3.16-6.16,2.93.13,1.24,1.37,1.07,1.76,1.53.08,1-.91,2.49-1.34,3.4-1.9-.71-5.88,0-6.4-2.3-2.11.88,1.28.89.63,2.09l-.28,0a3.86,3.86,0,0,1,2.55.77,1.18,1.18,0,0,1-.27,1.52,2.33,2.33,0,0,1-1.39.74l-.41-1.73c-1.63,1.51-.06,3.6-.51,5.77-1.88.2-1.66-1.67-2.66-2.88-.48.42-1,.77-1.46,1.16l-.55-1.16c-.91.79-.67,2-2.36,2.22.57-1.59-2.69-.09-1.88-2.25-1,0-.24,2.33-1.33.93,0,1.5,1,.33,1.6.55,1.12,1.68-1.46,1.62-2.27,2.51-.47-.91.21-1.39-1.22-1.54.06.82-.48,1.69-1.48,1.08.46,1.21-1.27.73-2,.9.85,0,2.29.45,2.19,1.67a3,3,0,0,1-2.3,1.46l1.16.23c-.58,2.21-2.45-.55-3.89.57.45-.95.87-1.13,1.16-2.23a18.72,18.72,0,0,1-2.78,3.18l-2-1.36c.1,1-1.58.4-1.22,1.64-2-.32,1-1.91.85-2.88-2.37-.15-1.13,2.61-3.75,1.26l.37-1.34c-.7.09-1.91,1.12-2.15.56.11.42.41.16.84.05.24,2.6-2.76,2.6-1.89,5.11.34,0,.68-.06,1-.08-1.38.89-2.11,2.84-3.5,2.2-1.08-.64.27-1.9.64-2.69-1.46.14-.54,3.11-2.34,3.23,1,.23,1,1.19.6,2,1-.05,3.3,0,2.68-1l-.42-.17c-.06-.7.44-1.07.64-1.46,1.37-.3.91,1,1.31,1.47,2.39-.15-.44-2.62,1.65-3.08l.4.43c.82-.93,2.32-1.42,2.15-3.06,1.37,1.44,2.08-1.35,3.34-.65.65,1.77-.24,2-1.35,2s-2.45-.13-2.76,1c1.28.46-.15,1.9-.41,2.86,1-.84,2-1.65,3-2.5.41.41,2,1.9,2.19.39h-.3c1.23-.83.4-2.2,1.72-2.07.29.28.11,1,.1,1.23,1.19,0,.63-1.09,1.24-1.64,1.17-.05,0,1.66,1,1.74.76-1.82,2.07-.38,3.12-.85-.59-.93.22-2,.79-2.95s.9-1.81-.54-2.25c.65-.77,1.28-1.57,1.9-2.35,1.2.72-.57,3.48.77,4.88-.67.25-1.35.5-2,.71.32.6.71.69,1.15.54a6.48,6.48,0,0,0,1.44-1c1-.85,2.18-1.71,3.43-.62,1.13-.33.7-.58,3.26-.28l-1.33-2a3.19,3.19,0,0,1,2.38,1.42,4.79,4.79,0,0,1,1.74-.79,1.33,1.33,0,0,1-.4,1.06c1.36.83,1.39.28,1.35-.49.16-.76.83-1,1.48-1.32l-.18,1.09c.3-.38.67-.86.52-1.26a1.87,1.87,0,0,0,.67-.58,5.2,5.2,0,0,0-2.6-1.39c2.77-.36,4.37-1.74,7.3-1.17.26.64-.16,1.86.13,1.79a1.92,1.92,0,0,0,1.07-2.77,2.87,2.87,0,0,1,.5-.39c.49.4,1,.81,1.57.64a1,1,0,0,0,.87,0c-.65-1.83,1.71-2.17,1.66-3.15a4.13,4.13,0,0,0-1.58.84c.13-1.56,0-3.2,1.18-2.71-.8,1.91,2.59.71.69,2.5,2.82,1.07-.1-1.93,1.95-2.25l1.54.1c.61,1.26-1.29,1.7-.77,2l.63-.62c-.14,1.38-3.32,2.48-4.24,4.89l3.89-1.51a22.43,22.43,0,0,1,3-2.81c1.09-.87,2.29-1.64,3.38-2.52,2.18-1.73,4.22-3.52,5-6.07l-.12.14a3,3,0,0,0-.42-.83l.36.15,0-1.33c1.55.41,3.15-.49,5-.72-1.28,0-1.28,0-2-.76-.72-1.19-1-1.74.42-2.26.64.74,0,1.29,1.25,1.2-.72,0-.79-.85-.4-1.35,1,0,2.13-.8,2.79-.06-.12.44-.57.38-.85.43-.12.44,1.74-.32,1.41,1l.94-1.16c1.18.05.42,1.35,1,1.51,1.4-2.14.8-4.66,2-6.61.28.45,1.75,2.06,1.33,1.59,1.72-.68,1-4.25,2.23-5.69.25.66-.44,1-.64,1.6,4.81-3.48,8.07-7,13.32-9.73l-.76-2.57,2.07-.12c4.89-3.51,6.51-8,9.26-12.77.9-1.46,1.86.09,2.85-.19,2.4-3,.91-5.13,2.46-8.38.3.79,1.42,2.58,2.37,1.35-.38-.61-1.12-1.33-.24-1.91l.29.79c1.33-.19,1-1.42,2.4-2.74A13.1,13.1,0,0,0,209,238c1.66-2.32,1.92,1.5,2.61,1.29-1.75,1.31-.39,1.41.05,2.19,0-1.25.34-2.56,2-2.22.68-1.34,1.12-1.88.9-3.71.1.92-1,1-1.24.07,1.09-.78,2.09-3.78,3.74-2.66,3.13-6.38,7.17-13.22,10.28-20.14-.39-1.59-.78.7-1.14-.24-.42-2.24,1.26-1,.9-2.83l.74,1c1-1.95.19-4.91.11-7.25,1,.82,1.63-1.2,1.61.72.22-1,5.83,0,5.1-1.21l-5.23-.95c-.44-.25.42-1.47,0-1.47,1.3-.43,2.84-1,3.09-1.58,1.33.21.45,1.57.08,2.36,2,1,2.44-2.17,3.8-.23.4-1.88-1.14-.19-1.45-1.53.36-.44.7-.91,1.05-1.37l-1.15.92c-.1-1.54-1.47-2.59.33-3.86l-1.3-2.54c1.69.43.81-1.18,1.53-1.95l.81.95a3.42,3.42,0,0,1,1.72-2.17c1.18,1.22-.74,1,.5,1.79l1-1.19c-.92-.33-1.34-1.45-2.24-.68-1.27-1.87-2.46-3-1.23-6.1,2.08-.88.87,2,2.64,1.94,1.81-3.06-2.83-5.36-2-7.17,1.41-2.21-.08-2.52.5-5,.87,1.1,1.66-1.38,2.84-1.54l.85,1.3c-.12-.85.51-1.45,1.25-1-1.52-.28-.45-3.6-.75-5.51l-1.35,0c-.08-1.45-.41-3.49.28-4.81.11-2.2-1.15-2-2.16-3.94a4.66,4.66,0,0,1,4,.43c-.79.41-.63,1.45-1.24,2.28.46,2.92,2.57,5.69,1.27,8.21,2.78,2,.11-1.9,1.53-2.92a.33.33,0,0,1,.21.31.65.65,0,0,1,.18-.31c.13,1.06.21,2.76,1.72,3.45.1-1.71-2.77-2-.94-3.65-.48-1.7,2.28-2.3,2.7-3.15-.92-1.28-3.39-1.92-2.35-4.23l1.49,1.48c.68-2.76-2.24-1.89-1.57-4.41-.41.84-1.51-1.24-1.95.43a4.15,4.15,0,0,1,.29-4.17c-.19-.41-.58-.2-1.16-.39-1.54,1.24.68,2.65-1.35,3.5L242.5,156a1.81,1.81,0,0,1-3.09,0c0,.41.17.82-.23,1-2.87-.42,1.4-1.44-.88-2.48l0,1c-1.93,0-1.06-2.65-.67-3.89,1.16-1.25,1.76-2.5,3.11-2.31l.16,2.06c1.28-.78-.09-2.61.2-3.73a.84.84,0,0,0,.48-.23.82.82,0,0,1-.38,0,1,1,0,0,1,.68-.52c.27-1-.26-2.6.35-3.44l-1.21-.12.64.25c-.22.9-1.2,2-1.95,1.12-.42-2.21,1.95-2.16,3.09-2.44,1.73.83-.42,2,0,3.16,1.93-.26.6-2.05,2.22-3.94,1.82,1.24-.52,2.46,1.22,3.3.68-1.65-.64-2.38.22-4.09.88.41.61,2.19,1.81,2.31L249,142c-.45,2.89,2.57,0,2.61,2.32,1-.9-1.32-1.8.23-3.05-.94.25-2.76,1.14-3.25-.44l.88-1.5c1.09-.5,1.8,2.09,2.81,1.19l-.36-1.83c-.6-.05-1.05.7-1.77,0,.82-.86-2-2-2.65-3.34.22-.91.48-1.61,1.23-1.8-1.34-2.62-.75-5.52-2-7.93.93,1.66,2,.31,3.09-.39,0,1.7,1.81,2,3,2.14,0-1-1.82-2-2.54-1.64,1.06-1.55-1.08-1.4.43-2.65.82-.85,1.76.8,2.52.6.4-1.8-2.18-.9-1.39-2.8.23.16.28.35.65.25a2,2,0,0,0-1-2.68c2.63-.69.31-3.23,2.62-2.58-.17-2.68-1.35.15-2.09-.5-.86-1.25.37-3,.85-3.55-.06.63.47,1.33,0,1.87l1.74-.24c1.75-2.94-3.33-2.69-1.34-5.49.56,1.74,1.14.75,2.15,1.75-.33-.55.59-2.84-.94-1.64a10.88,10.88,0,0,1,1.26-2.58c-.43-1.13-.66-2.32-1.61-3.13a6.33,6.33,0,0,1,2.77-3.1c-.49-3.59,2.23-6.16,1.8-9.9l-.16.22c1-2.58-2.46.65-1.68-2.11,1.88.87,1.77-1.32,3-1.93A9.44,9.44,0,0,0,261,81c.1-1.49.18-3,1.35-4.27a.92.92,0,0,1,.68,1.09c1.38-2.07,1.54-4.06,2.39-6l.21.17a7.39,7.39,0,0,0,2.11-4.55c.32-1.63.39-3.4.86-5.14.12.37.8.75,1,1.06a11.77,11.77,0,0,0,1.58-2.68,3.52,3.52,0,0,0-.1-3.07c1.34-.5,1.37-.87,1.43-1.31s.16-1,1.65-1.67c.39,0,.17.4.15.59,1.22-.82,1.46-1.74,2.32-2.76a17.17,17.17,0,0,0-.25-4,3.85,3.85,0,0,1,1.39-3.56c2.39,1.41-.64,2.1,1.2,3.4-.08-.85-.2-1.64.88-2,.58,1.06.5.49,1.12,1.36,1-.14-.75-4-.54-3.81-.41-.34-.79-.31-1.11.29-.93-1.64,1.79-2.87,2.32-4.54-.37.39-1.87,1.4-2.52.11,1.88-1.42.25-3.65.43-5.65,2.29-.88.81,2.73,2.59,3.62.77.16,2.47.51,2.53,1.65,1.41-1.17,1-3.2,1.83-4.72l.38.4a13.55,13.55,0,0,0,1.4-3.45c.46-1.15,1-2.17,2.11-2.47l-1.18.29c0-.5,1-1.22.68-2.48.59.7,2.24.22,2.31,1.2a3,3,0,0,1-.15-2,7.91,7.91,0,0,1,.92-1.84c.74-1.22,1.51-2.44,1.06-3.89,1,.13,1.34,1.37,1.64,2-1.29.8-2.06.71-1.87,2.09.91-.85,2.08-.88,2.37-.25a8.75,8.75,0,0,1,.57-3.4,5,5,0,0,0,.36-3.06c1.31.13,2.3,0,3,1.37,1.21-1.55.14-2.19-.83-2.76s-1.83-1.07-.07-2.45c2.48-.07-.34,2.8,2.14,1.49l-.26.51c3.89,1.91-.53-3.06,1.43-4.31,1.48,1.57-.41,2.15,1.75,2.49,1.37-1.61.35-4.75,2.46-5.39l.23.94c1-.88,3.49-1.88,4.53-2.74.27.33.08.38-.08.61,2.51-.62.32-1.48,2.78-1.29l0-1.19c-1.23-.1-3.47.08-3.92,1.79.46-1.72-3.17-1.19-3.6-3.06l.17.75a11.6,11.6,0,0,0-3.37-.09,18.82,18.82,0,0,0-3.19.79c-1.06.35-2.11.77-3.17,1.21-.53.22-1.07.43-1.59.67l-1.59.72a4,4,0,0,1-2.7,2.84c-1.16.52-2.42,1-3.06,2.62,1.26,2.19-.11.75-1.74,2.86.83-1.15-1.13-1.53-2-1.18a3.45,3.45,0,0,1-.58,2c-.95-.27-4.75.69-4.43,2.75-1.72.58-.3-.83-.41-1.45-1.38-.42-.24,1.64-1.23,1.42a.55.55,0,0,1-.14-.41,23.41,23.41,0,0,1-2.46,2.19c-.82.63-1.69,1.24-2.68,2.12,1.69,1.77-1,2.5-1.06,4-.38-.79-1.62.57-2.45.87l.56,2.22c.37,2-2.07.83-2.42,2.8l.6-.1c-.14,1.49-3.31,3.41-5.13,3.79-1.24,6.41-4,10-7.11,13.78a57.88,57.88,0,0,0-4.57,6,29.88,29.88,0,0,0-2,3.59,28.48,28.48,0,0,0-1.47,4.27c.4,1,1.37-.14,2.17.83a13.6,13.6,0,0,1-.71,2.63c.93-.75.12-.86.71-.52,0-.63,0-1.26,0-1.89.2,0,.2.19.58.15a4.12,4.12,0,0,1,.17-2.13c.21,1.25,1.8,2.15.63,3.31-.19-.19-.2-.4-.2-.82-.57,1.11.21,1.45-.52,2.16-.73.94-.12.86-.9.74l-2,3c1.48,2.3-1,3.76-1.39,4.26-1.44-.83.18-2.38-1.1-3.67l-1.48.88,1.21.45-.85,1.64-.21-.17c.43.35.85.7.29,1-.19,0-.58.1-.6-.12l.32,1.44c-1.07-1.08-.7,1-2.13.4-1.81,3.91.6,5.71-2.26,8.8.84-.41,2.1,1.7,1.57,2.73-.52.55-.9.64-1.38.1l.44,1.62c-2.75,1.29-1.6,3.38-3,5.86l-.63-.27a4.42,4.42,0,0,1,.47,3.74l-1.28-.53c-1.29,1.61,2.53,1.92,1.29,3.73,1.43.26,2.41-.84,3.81-.76-1.55.18-2.18,2.25-1.05,2,.22,2.06-.29,1.35-.66,1.45l.66,1.31c-.33,1.36-2,.09-2.69-.57,1.3,1.57-.05,2.77-.56,4.18l-.53-.71-.61,1.87a4.49,4.49,0,0,1-.21,4.7L233,116c-1.19,1,.55.7.82,1.06.6,1.94-.75,2.09-2,2.84C233.33,123.12,227.75,125,230.15,127.92ZM143.93,294.86l.37.09C144,295.55,143.9,296,143.93,294.86Zm12.67-8.79c-.94,1.79-1.08.69-1.52.37,1.74-.75,2.12-1.9,3.76-2.46a3.56,3.56,0,0,1-1.09-.67,1.82,1.82,0,0,1,2.13.15C160.52,285.45,155.26,285.74,156.6,286.07Zm-24.86,27.44a3.85,3.85,0,0,1,0-.49h0Zm7.8-6.1a1.34,1.34,0,0,0,1,.36C140.11,307.41,139.75,307.13,139.54,307.41Zm17.5-8.72c.86.39,1.51-.46,2-1.07A9.16,9.16,0,0,0,157,298.69Zm70.54-97.4c.06.65.37,2,1.3,1.29-.44-.71,1-1.1.21-1.88a.45.45,0,0,1,.12-.06A6.23,6.23,0,0,0,227.58,201.29Zm10.09-55.59c.76.26,1.51.84,2.15.7l-.09.14c.29-.08.53-.16.68,0,.24-.42.52-.85.36-1.21C238.28,144.66,238.06,143.64,237.67,145.7Z" transform="translate(-0.14 -3.59)"/><path class="cls-1" d="M243.74,166.45a4.88,4.88,0,0,0,.07-.53A4.62,4.62,0,0,0,243.74,166.45Z" transform="translate(-0.14 -3.59)"/><path class="cls-1" d="M240.75,145.41c-.16-.07-.51.4-.93,1C240.16,146.33,240.48,146.07,240.75,145.41Z" transform="translate(-0.14 -3.59)"/><path class="cls-1" d="M99.71,315.59l.47-.37L99,314.69c-1.56,1.22-1.43,2.33-1.62,3.69,1.36-1.52,2.45-1.14,4.42-1.92Z" transform="translate(-0.14 -3.59)"/><path class="cls-1" d="M102.54,323.76c.26.29.93,1,1.24,1.05l.09-.83C103.43,323.93,103,323.83,102.54,323.76Z" transform="translate(-0.14 -3.59)"/><path class="cls-1" d="M125.59,320.26l-2,.07C123.31,321.19,125.78,321.48,125.59,320.26Z" transform="translate(-0.14 -3.59)"/><path class="cls-1" d="M113.36,310.41l-.56,1.12c1,.38,2-.07,1.82-1C113.79,311.36,114.2,310.11,113.36,310.41Z" transform="translate(-0.14 -3.59)"/><path class="cls-1" d="M130.26,318.39c-.13-1.65,2-.16,1.71-1.64C131.71,317.34,129.69,317,130.26,318.39Z" transform="translate(-0.14 -3.59)"/><path class="cls-1" d="M123.05,305.52c-1.08-1.12-1.34.45-2.47.52C121.4,305.73,123.15,306.61,123.05,305.52Z" transform="translate(-0.14 -3.59)"/><path class="cls-1" d="M137.12,310.07c.45,1-.26,1.33-1.15,1.48.09-.43,0-1,.28-1.3a13.81,13.81,0,0,1-1.83,2.29c1.38.16,3.17-.19,3.66,1.11C138.36,312.32,138.53,310.44,137.12,310.07Z" transform="translate(-0.14 -3.59)"/><path class="cls-1" d="M125.3,304.29c-1,0-1.89-.73-2.81-.21.48.62,1.27,1.5,2.32.81l.14,1.36C126.4,306.62,123.82,304.89,125.3,304.29Z" transform="translate(-0.14 -3.59)"/><path class="cls-1" d="M143.21,310.06l-.81-.22c-.67,1.56-2.44,2-2.33,3.78A8,8,0,0,0,143.21,310.06Z" transform="translate(-0.14 -3.59)"/><path class="cls-1" d="M130.28,304.5l-.67-1.68c-1.22.34.36.5.16,1.08-.44-.07-1,0-1.07.45C129.85,303.47,129.44,305.61,130.28,304.5Z" transform="translate(-0.14 -3.59)"/><path class="cls-1" d="M133,300.83l1-1.46-2-1.11C130.69,299.76,132.42,299.28,133,300.83Z" transform="translate(-0.14 -3.59)"/><path class="cls-1" d="M135.28,300.91l.33.21c.25-1.17.51-2.31.73-3.49A10,10,0,0,0,135.28,300.91Z" transform="translate(-0.14 -3.59)"/><path class="cls-1" d="M166.76,292.88c-.29-.77-2.06-.53-1-.29C165.94,293.26,168.14,292.71,166.76,292.88Z" transform="translate(-0.14 -3.59)"/><path class="cls-1" d="M153,285.57c.91.05,1.93-2.23,2.31-3.26a15.38,15.38,0,0,1-1.67,1.77C153,284.66,152.57,285.21,153,285.57Z" transform="translate(-0.14 -3.59)"/><path class="cls-1" d="M155.44,281.89l-.17.42A1,1,0,0,0,155.44,281.89Z" transform="translate(-0.14 -3.59)"/><path class="cls-1" d="M180.16,249.77a.48.48,0,0,0,0-.36Z" transform="translate(-0.14 -3.59)"/><path class="cls-1" d="M179.94,250.81a1.93,1.93,0,0,0-.5,2.36,10.47,10.47,0,0,0,.72-3.4C180,250.18,179.17,250.27,179.94,250.81Z" transform="translate(-0.14 -3.59)"/><path class="cls-1" d="M185.77,243.55c.12.67-.48,1.07.24,1.37C186.44,244.89,186.38,243.58,185.77,243.55Z" transform="translate(-0.14 -3.59)"/><path class="cls-1" d="M236.39,196.09c.74-.78.66-1.43-.48-1.59C235.52,195.54,236.37,195.22,236.39,196.09Z" transform="translate(-0.14 -3.59)"/><polygon class="cls-1" points="236.01 189.64 236.58 189.72 237.62 189.42 236.01 189.64"/><path class="cls-1" d="M240,187.4a1,1,0,0,1,.32.55C240.33,187.53,240.29,187.17,240,187.4Z" transform="translate(-0.14 -3.59)"/><path class="cls-1" d="M240.35,188.16a1.48,1.48,0,0,0,0-.21Z" transform="translate(-0.14 -3.59)"/><path class="cls-1" d="M239.86,188.46l.54.28a2,2,0,0,1-.05-.58C240.32,188.34,240.18,188.5,239.86,188.46Z" transform="translate(-0.14 -3.59)"/><path class="cls-1" d="M240.89,185.53l-2.06.67c.35,1.55,1.34-1.16,2.63.69Z" transform="translate(-0.14 -3.59)"/><path class="cls-1" d="M241.83,181.08c.91-1-1.14-3.51,1-3.58,0-3.65-3.45-.21-3.1-4.22-2,3.27,3.25,2.94,1.16,5.8C242.59,177.91,241.53,180.41,241.83,181.08Z" transform="translate(-0.14 -3.59)"/><path class="cls-1" d="M238.4,180.61c.91.5,1.46-1,1-1.62C239.12,179.39,237.53,179.69,238.4,180.61Z" transform="translate(-0.14 -3.59)"/><polygon class="cls-1" points="242.81 170.69 243.85 169.88 243.3 169.44 242.81 170.69"/><path class="cls-1" d="M244.44,170.51l.85,1.31C244.94,171.37,245.46,169.9,244.44,170.51Z" transform="translate(-0.14 -3.59)"/><path class="cls-1" d="M247.28,165.45c.63-.85-1.79-2.36-1.72-.23l.22-.43C246.15,165,247.36,164.18,247.28,165.45Z" transform="translate(-0.14 -3.59)"/><path class="cls-1" d="M246.06,151.94c-.2.63,0,1.47.56,1.45l-.17-1.88Z" transform="translate(-0.14 -3.59)"/><path class="cls-1" d="M239.53,150.8c-1.74.23-.21,1.65-1,2.69C239.13,152.25,239.32,152.45,239.53,150.8Z" transform="translate(-0.14 -3.59)"/><path class="cls-1" d="M248.79,150.42c.56.61,0,1.27-.23,1.69C249.53,152.09,249.56,150.81,248.79,150.42Z" transform="translate(-0.14 -3.59)"/><path class="cls-1" d="M248.83,147.48c.77-.45.88.31,1.41,0a2.47,2.47,0,0,0,.39-3.3c-.76.19-2.72.26-3.44-.41.19,2.08,3,3.71.49,4.2l2.47,2.24C250.94,148.67,248.44,148.54,248.83,147.48Z" transform="translate(-0.14 -3.59)"/><path class="cls-1" d="M242.62,150.33l1.17-.85c-1,0-.95-.81-1.13-1.43C240.53,147.89,242.63,149.71,242.62,150.33Z" transform="translate(-0.14 -3.59)"/><polygon class="cls-1" points="249.57 132.71 249.51 130.38 249.26 131.09 249.57 132.71"/><polygon class="cls-1" points="250.5 131.4 251.11 131.45 250.32 129.54 250.5 131.4"/><polygon class="cls-1" points="251.64 129.19 251.49 129.44 251.78 130.84 251.64 129.19"/><path class="cls-1" d="M253,128.2l-.94.26c.13.6-1.06,1.56.14,1.66A1.5,1.5,0,0,1,253,128.2Z" transform="translate(-0.14 -3.59)"/><path class="cls-1" d="M233.54,108.88c.5.51,1.05.36,1.62.21l-1.37-.92C233.83,108.38,233.91,108.78,233.54,108.88Z" transform="translate(-0.14 -3.59)"/><path class="cls-1" d="M236.46,106.62l-1.39-2c-.62,1.87.67,2.38.62,4.1.67-.61-.36-1.82.27-2.63Z" transform="translate(-0.14 -3.59)"/><path class="cls-1" d="M245.59,73.43c1,.48,1,.06,1.31,1.5-.19-1.89.56-3.27,1-5.25-.77.11-1.44-1.72-1.4-.88l-.08,2.38-.62-.56C244.52,71.89,246.66,72,245.59,73.43Z" transform="translate(-0.14 -3.59)"/><path class="cls-1" d="M306,9.76c.14.56.62.82,1.1,1.08C307.78,9.62,305.85,10,306,9.76Z" transform="translate(-0.14 -3.59)"/><path class="cls-1" d="M172.66,322.23c-.48,1.47.26.43,1,.17Z" transform="translate(-0.14 -3.59)"/><path class="cls-1" d="M173.66,322.4l.72.13A.66.66,0,0,0,173.66,322.4Z" transform="translate(-0.14 -3.59)"/><path class="cls-1" d="M180.22,322.51c-1.31,1.39-3.3,0-4,1.87a3.28,3.28,0,0,0,2.6.13A2.22,2.22,0,0,0,180.22,322.51Z" transform="translate(-0.14 -3.59)"/><path class="cls-1" d="M177.85,321.76l-.06.95c.37-.54.73-1.07,1.08-1.63C178.54,321.32,178.19,321.54,177.85,321.76Z" transform="translate(-0.14 -3.59)"/><path class="cls-1" d="M176.81,321l.23.32c.63-.41,1.25-.78,1.87-1.22C178.22,320.46,177.51,320.72,176.81,321Z" transform="translate(-0.14 -3.59)"/><path class="cls-1" d="M185.35,322.3q-.72.29-1.44.54c-1.62-1,.6-1.85-.48-2.54-1.83.32-.16,2.73-2.55,2.71.38,1.15,3.72-.64,3.69,1.28C186.65,324.49,184.46,323.18,185.35,322.3Z" transform="translate(-0.14 -3.59)"/><path class="cls-1" d="M255.55,271a2,2,0,0,0,.26,0C255.61,270.88,255.45,270.83,255.55,271Z" transform="translate(-0.14 -3.59)"/><path class="cls-1" d="M269.8,252.38a3.61,3.61,0,0,0,.88-.53,1.72,1.72,0,0,0-.64,0Z" transform="translate(-0.14 -3.59)"/><path class="cls-1" d="M247.27,283.73a5.64,5.64,0,0,0-1,.25A1.07,1.07,0,0,0,247.27,283.73Z" transform="translate(-0.14 -3.59)"/><path class="cls-1" d="M327.71,154.26a1.86,1.86,0,0,0,.51.25l0,0-.43-.37Z" transform="translate(-0.14 -3.59)"/><path class="cls-1" d="M282,229.11a3.6,3.6,0,0,0,.38-1C282.05,228.62,282,228.91,282,229.11Z" transform="translate(-0.14 -3.59)"/><path class="cls-1" d="M240.73,289.3l.29-.21a1.62,1.62,0,0,0-.47.12l.17.1Z" transform="translate(-0.14 -3.59)"/><path class="cls-1" d="M263.09,256.75a2.11,2.11,0,0,0,.7-.51A2,2,0,0,0,263.09,256.75Z" transform="translate(-0.14 -3.59)"/><path class="cls-1" d="M208.24,317.82a1.1,1.1,0,0,0,1-.58C208.85,317.08,208.51,317.17,208.24,317.82Z" transform="translate(-0.14 -3.59)"/><path class="cls-1" d="M216.46,314.08a.05.05,0,0,1,0,0C216.56,314.3,216.56,314.24,216.46,314.08Z" transform="translate(-0.14 -3.59)"/><path class="cls-1" d="M221.71,311.7a.31.31,0,0,1-.07.09C221.78,311.91,221.82,311.92,221.71,311.7Z" transform="translate(-0.14 -3.59)"/><path class="cls-1" d="M209.21,317.24c1,.42,2.09,2.55,2-.25l-.31-.26c.76.34,1.16-.94,1.74-1.27a3.27,3.27,0,0,0-.47-.5,9.63,9.63,0,0,1-1.46.3C209.74,315.06,209.74,316.42,209.21,317.24Z" transform="translate(-0.14 -3.59)"/><path class="cls-1" d="M255.83,271.38c-.4-.28-.61.3,0,0Z" transform="translate(-0.14 -3.59)"/><path class="cls-1" d="M252.06,277.9c.19-.14.38-.28.57-.44A.87.87,0,0,0,252.06,277.9Z" transform="translate(-0.14 -3.59)"/><path class="cls-1" d="M230.28,294.47a.88.88,0,0,1,.16,0C230.32,294.24,230.26,294.33,230.28,294.47Z" transform="translate(-0.14 -3.59)"/><path class="cls-1" d="M253.12,277a4.15,4.15,0,0,1-.49.45A.67.67,0,0,0,253.12,277Z" transform="translate(-0.14 -3.59)"/><path class="cls-1" d="M237.82,290.9H238A.17.17,0,0,0,237.82,290.9Z" transform="translate(-0.14 -3.59)"/><path class="cls-1" d="M365.71,48.53c-.08.56-.82.45-1.25.75.9,1.85,1.21-1.88,1.69.28a2.24,2.24,0,0,0,.23-1.29l-1.74-.3C364.67,49.13,365.44,47.72,365.71,48.53Z" transform="translate(-0.14 -3.59)"/><path class="cls-1" d="M332.57,148l-.2.22c.77,0,1,.18,1.56-.67-1-1-2.89-.13-3.85-1.76a1.46,1.46,0,0,1-.29,1C330.9,146.44,331.84,147.21,332.57,148Z" transform="translate(-0.14 -3.59)"/><path class="cls-1" d="M329.79,146.8l-.1,0a2,2,0,0,0-.44.12,1.05,1.05,0,0,1-.29.5A1.56,1.56,0,0,0,329.79,146.8Z" transform="translate(-0.14 -3.59)"/><path class="cls-1" d="M357,63.31l-.37.48C357,63.66,357.1,63.5,357,63.31Z" transform="translate(-0.14 -3.59)"/><path class="cls-1" d="M299,241.44a9.39,9.39,0,0,0,0,.95A1.09,1.09,0,0,0,299,241.44Z" transform="translate(-0.14 -3.59)"/><path class="cls-1" d="M328,161a2.09,2.09,0,0,0-.42.6c0,.14,0,.26,0,.43Z" transform="translate(-0.14 -3.59)"/><path class="cls-1" d="M321.18,113.91c1.75.81-.09-.39,1.15-1.14l-.82-1.06A4.63,4.63,0,0,0,321.18,113.91Z" transform="translate(-0.14 -3.59)"/><path class="cls-1" d="M366.51,48.29l-.14-.09v.07Z" transform="translate(-0.14 -3.59)"/><path class="cls-1" d="M326.09,87.44c.13-.13.24-.25.35-.38A.82.82,0,0,0,326.09,87.44Z" transform="translate(-0.14 -3.59)"/><path class="cls-1" d="M327.89,151.82c-.27,1.11-.55,2.21-.85,3.31l.67-.87C326.93,153.6,328.88,152.53,327.89,151.82Z" transform="translate(-0.14 -3.59)"/><path class="cls-1" d="M317.56,127.92l-1.17.1c1.78,3.73-2.33,6.81.5,10-4.69,3.16,3,3.29-1.24,6.2h.58c-1.59,5.84-3.57,11.74-5.49,17.46-.89,2.89-1.88,5.68-2.6,8.51a68.7,68.7,0,0,0-1.86,8.34l-.75-.28c-.91,2-1.71,4.07-2.57,6.08s-1.71,4-2.54,6-1.74,4.07-2.59,6.12-1.76,4-2.63,6.08a177,177,0,0,1-12.1,23.47c-.21,1.79,1.81,1.82,1.84,3.51-.38.5-1,1.76-1.87,1.25.16-1.31-.93-1.17-1.05-1.72a21,21,0,0,1-1.95,2.61,4.44,4.44,0,0,0-1.23,2.85l1.86-.58c.08.87-.81,1.6-1.2,2.1-.4-.58-2.05-.56-2-1.18.64,4.87-2.72,1.68-3.41,5a7.29,7.29,0,0,1,1.44,4.44c.11,1.79,0,3.73,0,5.38l-1.37.71c1.09-1.48-1.6-1.13-.18-2.9-1.7,1.1-1.85,3.17-3.27,4.34a1.29,1.29,0,0,1,1.2,1.49c-1,.66-2.08-.08-2.95.83l.08-1.5c-1.29.05-.68,1.43-1,2.13-1-.5-2.36.82-3.13-.22.14,2.25-.86,2.2-1.29,4.18,2.13-.67.82,1.31,1.68,1.76.34-.64.7-1.27,1-1.93-2.48,1.86.47-.88-1.17-1.92,1.57-.54,1.23,3.51,2.48,1.47-1,2.85-2.1,2.71-2.77,6,.87-1.58.72,1.07,1.78.73-1.41,1.77-.87,0-2.25-.29-.74,1-1.87.57-1.56,2.34-1.76,1.08-.88-1.18-2.12-1-.26-.72,1-1.43,1.79-2.32s1.26-1.89-.52-3.06c.62-.8.19-2.76,1.18-3.81-1.24.62-3.45,1.07-3.72,2.88l1.74,1.61c-.73.95.33,2.2-.41,2.7-.21-.79-1.51-.85-2,0,.44,0,.64-.31.87,0-1.06,1.43,0,2.7-1.13,4.6,1.63-.89,2.4-.68,4.29-1.23.94,1.45-.61,1-1.12,1.9-.07-.26,0-.44-.4-.45l-.12,1.32c-2,1.14-1.56-1.83-3.4-1.07-1.88-.06-.63,1.78-1.87,1.92.16.06.32.13.44.16a1.78,1.78,0,0,1-.42.26l.1.07c-.64,1-1.6,1.83-1,2.93-.49-.32-.62.83-.63,1.37-.11.81-.24,3-2.32,2.21,0,0,0,0,.05-.06-1.22.86-2.51,1.13-2.73.43l-2.06,1.21-.9-1.37c-1.27,1.74-.47,2.32-.5,4.52-1.8.26-3.32,2.6-3.75,3.69a1.68,1.68,0,0,0-.66.54l1.1-.06c-1.36,1-.67,1.53-1.54,2.23.28,0,.36,0-.29.21a5.07,5.07,0,0,1-.58.3c-.06-.17.16-.31.4-.39l-.49-.3c-2.1-.53-1,2.06-2.56,2.42a1.42,1.42,0,0,1,.32-.43c-.92.13-3.19-1-2.64.28-.25,0-.31.36-.33.8l-.62.15a3,3,0,0,1,.61-.14c0,.6,0,1.27-.21,1-.61.33-1.23.64-1.86.94-.46,0-.78.48-1,.91l-.66-.36c-.57.5-.8.17-.82,0-3.39-.49-2.74,3.16-6.16,2.93.12,1.24,1.36,1.07,1.75,1.53.08,1-.91,2.49-1.33,3.4-1.9-.71-5.89,0-6.4-2.3-2.11.88,1.28.89.62,2.09l-.27,0a3.85,3.85,0,0,1,2.54.77c.37.48.14,1.06-.27,1.52a2.33,2.33,0,0,1-1.39.74l-.4-1.73c-1.64,1.51-.06,3.6-.52,5.77-1.88.2-1.65-1.67-2.66-2.88-.47.42-1,.77-1.45,1.16l-.56-1.16c-.91.79-.66,2-2.35,2.22.57-1.59-2.69-.09-1.88-2.25-1,0-.25,2.33-1.34.93,0,1.5,1,.33,1.6.55,1.13,1.68-1.46,1.62-2.26,2.51-.47-.91.2-1.39-1.22-1.54,0,.82-.48,1.69-1.49,1.08.47,1.21-1.26.73-2,.9.84,0,2.29.45,2.18,1.67a2.93,2.93,0,0,1-2.29,1.46l1.15.23c-.58,2.21-2.45-.55-3.89.57.46-.95.88-1.13,1.17-2.23a19.27,19.27,0,0,1-2.79,3.18l-1.95-1.36c.1,1-1.59.4-1.23,1.64-2-.32,1-1.91.85-2.88-2.37-.15-1.13,2.61-3.74,1.26l.37-1.34c-.71.09-1.91,1.12-2.15.56.11.42.41.16.84.05.23,2.6-2.77,2.6-1.9,5.11.35,0,.69-.06,1-.08-1.38.89-2.1,2.84-3.49,2.2-1.09-.64.26-1.9.64-2.69-1.46.14-.55,3.11-2.34,3.23,1,.23,1,1.19.59,2,1.06-.05,3.31,0,2.69-1l-.43-.17c-.05-.7.44-1.07.64-1.46,1.38-.3.92,1,1.31,1.47,2.4-.15-.43-2.62,1.66-3.08l.39.43c.83-.93,2.33-1.42,2.15-3.06,1.37,1.44,2.09-1.35,3.34-.65.66,1.77-.23,2-1.34,2s-2.46-.13-2.77,1c1.29.46-.15,1.9-.4,2.86,1-.84,2-1.65,3-2.5.41.41,2,1.9,2.18.39h-.29c1.23-.83.4-2.2,1.71-2.07.29.28.12,1,.11,1.23,1.18,0,.63-1.09,1.24-1.64,1.17-.05-.05,1.66,1,1.74.77-1.82,2.07-.38,3.13-.85-.6-.93.22-2,.79-2.95s.9-1.81-.55-2.25c.65-.77,1.28-1.57,1.91-2.35,1.19.72-.57,3.48.77,4.88-.68.25-1.35.5-2.05.71.32.6.71.69,1.16.54a6.44,6.44,0,0,0,1.43-1c1-.85,2.18-1.71,3.44-.62,1.13-.33.69-.58,3.26-.28l-1.33-2a3.17,3.17,0,0,1,2.37,1.42,4.87,4.87,0,0,1,1.74-.79,1.32,1.32,0,0,1-.39,1.06c1.36.83,1.39.28,1.35-.49.16-.76.82-1,1.48-1.32l-.19,1.09c.31-.38.68-.86.53-1.26a1.84,1.84,0,0,0,.66-.58,5.2,5.2,0,0,0-2.6-1.39c2.78-.36,4.37-1.74,7.3-1.17.27.64-.16,1.86.14,1.79a1.92,1.92,0,0,0,1.07-2.77,3.29,3.29,0,0,1,.49-.39c.49.4,1.05.81,1.58.64a1,1,0,0,0,.86,0c-.64-1.83,1.71-2.17,1.67-3.15a4.16,4.16,0,0,0-1.59.84c.13-1.56.05-3.2,1.18-2.71-.8,1.91,2.6.71.69,2.5,2.82,1.07-.1-1.93,2-2.25l1.54.1c.6,1.26-1.3,1.7-.77,2l.62-.62c-.14,1.38-3.31,2.48-4.24,4.89l3.89-1.51a23.14,23.14,0,0,1,3-2.81c1.09-.87,2.29-1.64,3.37-2.52,2.19-1.73,4.23-3.52,5-6.07a.81.81,0,0,0-.12.14,3.54,3.54,0,0,0-.43-.83l.36.15,0-1.33c1.55.41,3.15-.49,5-.72-1.29,0-1.28,0-2-.76-.73-1.19-1-1.74.41-2.26.64.74,0,1.29,1.26,1.2-.73,0-.8-.85-.41-1.35,1,0,2.13-.8,2.79-.06-.11.44-.56.38-.85.43-.11.44,1.74-.32,1.41,1l.94-1.16c1.19.05.42,1.35,1,1.51,1.4-2.14.81-4.66,2-6.61a18.31,18.31,0,0,0,1.34,1.59c1.71-.68,1-4.25,2.22-5.69.26.66-.44,1-.63,1.6,4.81-3.48,8.06-7,13.32-9.73l-.76-2.57,2.06-.12c4.89-3.51,6.51-8,9.26-12.77.91-1.46,1.87.09,2.86-.19,2.39-3,.91-5.13,2.46-8.38.29.79,1.42,2.58,2.36,1.35-.37-.61-1.11-1.33-.24-1.91l.3.79c1.32-.19,1-1.42,2.4-2.74a13.15,13.15,0,0,0,1.27-9.82c1.66-2.32,1.92,1.5,2.62,1.29-1.75,1.31-.39,1.41,0,2.19,0-1.25.35-2.56,2-2.22.68-1.34,1.12-1.88.91-3.71.1.92-1,1-1.24.07,1.08-.78,2.08-3.78,3.74-2.66,3.13-6.38,7.16-13.22,10.27-20.14-.38-1.59-.78.7-1.13-.24-.42-2.24,1.25-1,.89-2.83l.74,1c1.06-1.95.19-4.91.11-7.25,1,.82,1.63-1.2,1.62.72.21-1,5.82,0,5.09-1.21L316.8,202c-.45-.25.41-1.47,0-1.47,1.29-.43,2.84-1,3.08-1.58,1.33.21.45,1.57.08,2.36,2,1,2.45-2.17,3.8-.23.4-1.88-1.14-.19-1.45-1.53.37-.44.7-.91,1-1.37l-1.15.92c-.09-1.54-1.47-2.59.34-3.86l-1.3-2.54c1.68.43.8-1.18,1.53-1.95l.81.95a3.44,3.44,0,0,1,1.71-2.17c1.18,1.22-.73,1,.51,1.79l1-1.19c-.92-.33-1.34-1.45-2.24-.68-1.27-1.87-2.46-3-1.23-6.1,2.08-.88.87,2,2.64,1.94,1.81-3.06-2.84-5.36-2-7.17,1.41-2.21-.08-2.52.51-5,.87,1.1,1.66-1.38,2.83-1.54l.86,1.3c-.13-.85.51-1.45,1.24-1-1.52-.28-.45-3.6-.75-5.51l-1.34,0c-.08-1.45-.41-3.49.28-4.81.1-2.2-1.16-2-2.17-3.94a4.65,4.65,0,0,1,4,.43c-.78.41-.62,1.45-1.23,2.28.45,2.92,2.57,5.69,1.27,8.21,2.77,2,.11-1.9,1.53-2.92a.33.33,0,0,1,.21.31.73.73,0,0,1,.17-.31c.13,1.06.22,2.76,1.72,3.45.1-1.71-2.77-2-.93-3.65-.49-1.7,2.27-2.3,2.7-3.15-.93-1.28-3.4-1.92-2.35-4.23l1.48,1.48c.69-2.76-2.24-1.89-1.56-4.41-.42.84-1.51-1.24-1.95.43a4.12,4.12,0,0,1,.28-4.17c-.19-.41-.57-.2-1.15-.39-1.54,1.24.67,2.65-1.36,3.5L329.9,156a1.81,1.81,0,0,1-3.08,0c0,.41.16.82-.23,1-2.88-.42,1.39-1.44-.89-2.48l0,1c-1.94,0-1.06-2.65-.68-3.89,1.17-1.25,1.77-2.5,3.12-2.31l.15,2.06c1.28-.78-.09-2.61.21-3.73a.9.9,0,0,0,.48-.23.86.86,0,0,1-.39,0,1.07,1.07,0,0,1,.68-.52c.27-1-.25-2.6.36-3.44l-1.22-.12.65.25c-.23.9-1.2,2-2,1.12-.42-2.21,2-2.16,3.09-2.44,1.74.83-.41,2,0,3.16,1.93-.26.61-2.05,2.23-3.94,1.81,1.24-.52,2.46,1.21,3.3.68-1.65-.64-2.38.23-4.09.87.41.61,2.19,1.81,2.31l.8-1.06c-.46,2.89,2.57,0,2.6,2.32,1-.9-1.32-1.8.23-3.05-.94.25-2.75,1.14-3.25-.44l.89-1.5c1.09-.5,1.79,2.09,2.8,1.19l-.35-1.83c-.61-.05-1.06.7-1.78,0,.83-.86-2-2-2.64-3.34.22-.91.48-1.61,1.23-1.8-1.35-2.62-.75-5.52-2.05-7.93.94,1.66,2,.31,3.09-.39,0,1.7,1.82,2,3,2.14,0-1-1.82-2-2.53-1.64,1.06-1.55-1.09-1.4.43-2.65.81-.85,1.75.8,2.51.6.41-1.8-2.17-.9-1.38-2.8.23.16.27.35.64.25a2,2,0,0,0-1-2.68c2.63-.69.31-3.23,2.63-2.58-.17-2.68-1.36.15-2.09-.5-.86-1.25.36-3,.85-3.55-.07.63.47,1.33,0,1.87l1.74-.24c1.75-2.94-3.33-2.69-1.35-5.49.56,1.74,1.14.75,2.15,1.75-.32-.55.6-2.84-.93-1.64a10.88,10.88,0,0,1,1.26-2.58c-.43-1.13-.67-2.32-1.62-3.13a6.37,6.37,0,0,1,2.77-3.1c-.49-3.59,2.24-6.16,1.81-9.9l-.17.22c1-2.58-2.45.65-1.67-2.11,1.88.87,1.76-1.32,3-1.93A9.43,9.43,0,0,0,348.44,81c.11-1.49.19-3,1.36-4.27a.92.92,0,0,1,.68,1.09c1.38-2.07,1.54-4.06,2.39-6l.2.17a7.46,7.46,0,0,0,2.12-4.55c.31-1.63.39-3.4.86-5.14.12.37.79.75.95,1.06a11.79,11.79,0,0,0,1.59-2.68,3.55,3.55,0,0,0-.1-3.07c1.34-.5,1.36-.87,1.43-1.31s.15-1,1.65-1.67c.38,0,.17.4.15.59,1.22-.82,1.46-1.74,2.32-2.76a17.72,17.72,0,0,0-.25-4,3.84,3.84,0,0,1,1.38-3.56c2.39,1.41-.64,2.1,1.2,3.4-.08-.85-.19-1.64.89-2,.57,1.06.49.49,1.11,1.36,1-.14-.75-4-.53-3.81-.41-.34-.79-.31-1.12.29-.92-1.64,1.79-2.87,2.33-4.54-.38.39-1.88,1.4-2.52.11,1.88-1.42.25-3.65.42-5.65,2.3-.88.82,2.73,2.59,3.62.77.16,2.48.51,2.54,1.65,1.41-1.17,1-3.2,1.83-4.72l.38.4a13.53,13.53,0,0,0,1.39-3.45c.47-1.15,1-2.17,2.12-2.47l-1.18.29c0-.5,1-1.22.67-2.48.59.7,2.24.22,2.32,1.2a3,3,0,0,1-.16-2,8.79,8.79,0,0,1,.92-1.84c.74-1.22,1.52-2.44,1.07-3.89,1,.13,1.34,1.37,1.63,2-1.28.8-2.06.71-1.87,2.09.91-.85,2.08-.88,2.38-.25a8.74,8.74,0,0,1,.56-3.4,4.89,4.89,0,0,0,.37-3.06c1.3.13,2.29,0,3,1.37,1.21-1.55.13-2.19-.84-2.76s-1.83-1.07-.06-2.45c2.47-.07-.34,2.8,2.14,1.49l-.26.51c3.89,1.91-.54-3.06,1.42-4.31,1.49,1.57-.41,2.15,1.76,2.49,1.37-1.61.35-4.75,2.46-5.39l.23.94c1-.88,3.49-1.88,4.53-2.74.27.33.07.38-.08.61,2.51-.62.31-1.48,2.78-1.29l0-1.19c-1.23-.1-3.46.08-3.92,1.79.47-1.72-3.16-1.19-3.59-3.06l.17.75a11.67,11.67,0,0,0-3.38-.09,19.3,19.3,0,0,0-3.19.79c-1.05.35-2.1.77-3.16,1.21-.53.22-1.07.43-1.6.67l-1.58.72a4,4,0,0,1-2.7,2.84c-1.17.52-2.42,1-3.07,2.62,1.26,2.19-.1.75-1.73,2.86.83-1.15-1.14-1.53-2-1.18a3.61,3.61,0,0,1-.58,2c-1-.27-4.76.69-4.44,2.75-1.72.58-.3-.83-.41-1.45-1.38-.42-.23,1.64-1.23,1.42a.6.6,0,0,1-.14-.41,23.37,23.37,0,0,1-2.45,2.19c-.82.63-1.69,1.24-2.69,2.12,1.7,1.77-1,2.5-1.06,4-.37-.79-1.62.57-2.44.87l.55,2.22c.38,2-2.07.83-2.41,2.8l.6-.1c-.15,1.49-3.32,3.41-5.13,3.79-1.25,6.41-4,10-7.11,13.78a56.52,56.52,0,0,0-4.57,6,29.91,29.91,0,0,0-2,3.59,29.66,29.66,0,0,0-1.46,4.27c.4,1,1.37-.14,2.16.83a12.92,12.92,0,0,1-.71,2.63c.94-.75.12-.86.72-.52,0-.63,0-1.26,0-1.89.2,0,.2.19.59.15a3.92,3.92,0,0,1,.17-2.13c.21,1.25,1.79,2.15.63,3.31-.19-.19-.2-.4-.21-.82-.56,1.11.22,1.45-.51,2.16-.74.94-.12.86-.91.74l-2,3c1.49,2.3-1,3.76-1.38,4.26-1.44-.83.17-2.38-1.1-3.67l-1.49.88,1.22.45L331,75.68l-.21-.17c.42.35.84.7.28,1-.19,0-.58.1-.59-.12l.32,1.44c-1.08-1.08-.7,1-2.13.4-1.81,3.91.6,5.71-2.27,8.8.84-.41,2.1,1.7,1.57,2.73-.51.55-.89.64-1.37.1l.43,1.62c-2.74,1.29-1.59,3.38-3,5.86l-.64-.27a4.38,4.38,0,0,1,.47,3.74l-1.28-.53c-1.29,1.61,2.53,1.92,1.29,3.73,1.44.26,2.42-.84,3.81-.76-1.54.18-2.18,2.25-1,2,.22,2.06-.29,1.35-.67,1.45l.66,1.31c-.32,1.36-2,.09-2.69-.57,1.31,1.57,0,2.77-.55,4.18l-.54-.71-.6,1.87a4.51,4.51,0,0,1-.21,4.7l-1.7-1.45c-1.19,1,.55.7.82,1.06.61,1.94-.74,2.09-2,2.84C320.73,123.12,315.15,125,317.56,127.92ZM231.33,294.86l.38.09C231.41,295.55,231.3,296,231.33,294.86ZM244,286.07c-.95,1.79-1.09.69-1.52.37,1.74-.75,2.11-1.9,3.76-2.46a3.74,3.74,0,0,1-1.1-.67,1.82,1.82,0,0,1,2.13.15C247.92,285.45,242.67,285.74,244,286.07Zm-24.86,27.44a3.92,3.92,0,0,1,0-.49h0Zm7.8-6.1a1.34,1.34,0,0,0,1,.36C227.52,307.41,227.15,307.13,227,307.41Zm17.49-8.72c.86.39,1.51-.46,2-1.07A9.66,9.66,0,0,0,244.44,298.69ZM315,201.29c.06.65.37,2,1.3,1.29-.45-.71,1-1.1.2-1.88l.12-.06A6.1,6.1,0,0,0,315,201.29Zm10.09-55.59c.75.26,1.51.84,2.15.7l-.1.14c.3-.08.54-.16.69,0,.24-.42.52-.85.36-1.21C325.68,144.66,325.46,143.64,325.08,145.7Z" transform="translate(-0.14 -3.59)"/><path class="cls-1" d="M331.15,166.45c0-.22.07-.39.07-.53A2.35,2.35,0,0,0,331.15,166.45Z" transform="translate(-0.14 -3.59)"/><path class="cls-1" d="M328.15,145.41c-.15-.07-.51.4-.92,1C327.57,146.33,327.89,146.07,328.15,145.41Z" transform="translate(-0.14 -3.59)"/><path class="cls-1" d="M187.11,315.59l.47-.37-1.21-.53c-1.56,1.22-1.44,2.33-1.62,3.69,1.36-1.52,2.45-1.14,4.42-1.92Z" transform="translate(-0.14 -3.59)"/><path class="cls-1" d="M189.94,323.76c.27.29.94,1,1.24,1.05l.1-.83C190.84,323.93,190.39,323.83,189.94,323.76Z" transform="translate(-0.14 -3.59)"/><path class="cls-1" d="M213,320.26l-2,.07C210.72,321.19,213.19,321.48,213,320.26Z" transform="translate(-0.14 -3.59)"/><path class="cls-1" d="M200.76,310.41l-.55,1.12c1,.38,2-.07,1.82-1C201.19,311.36,201.6,310.11,200.76,310.41Z" transform="translate(-0.14 -3.59)"/><path class="cls-1" d="M217.66,318.39c-.12-1.65,2-.16,1.72-1.64C219.12,317.34,217.1,317,217.66,318.39Z" transform="translate(-0.14 -3.59)"/><path class="cls-1" d="M210.46,305.52c-1.08-1.12-1.35.45-2.47.52C208.81,305.73,210.55,306.61,210.46,305.52Z" transform="translate(-0.14 -3.59)"/><path class="cls-1" d="M224.53,310.07c.45,1-.26,1.33-1.16,1.48.1-.43,0-1,.28-1.3a13.32,13.32,0,0,1-1.82,2.29c1.38.16,3.17-.19,3.66,1.11C225.76,312.32,225.93,310.44,224.53,310.07Z" transform="translate(-0.14 -3.59)"/><path class="cls-1" d="M212.71,304.29c-1,0-1.9-.73-2.81-.21.48.62,1.26,1.5,2.32.81l.13,1.36C213.81,306.62,211.22,304.89,212.71,304.29Z" transform="translate(-0.14 -3.59)"/><path class="cls-1" d="M230.62,310.06l-.81-.22c-.67,1.56-2.45,2-2.33,3.78A8,8,0,0,0,230.62,310.06Z" transform="translate(-0.14 -3.59)"/><path class="cls-1" d="M217.69,304.5l-.67-1.68c-1.22.34.35.5.15,1.08-.43-.07-1,0-1.06.45C217.25,303.47,216.84,305.61,217.69,304.5Z" transform="translate(-0.14 -3.59)"/><path class="cls-1" d="M220.39,300.83l1-1.46-2-1.11C218.1,299.76,219.82,299.28,220.39,300.83Z" transform="translate(-0.14 -3.59)"/><path class="cls-1" d="M222.69,300.91l.32.21c.26-1.17.52-2.31.74-3.49A10,10,0,0,0,222.69,300.91Z" transform="translate(-0.14 -3.59)"/><path class="cls-1" d="M254.16,292.88c-.28-.77-2.06-.53-1-.29C253.35,293.26,255.55,292.71,254.16,292.88Z" transform="translate(-0.14 -3.59)"/><path class="cls-1" d="M240.36,285.57c.92.05,1.93-2.23,2.32-3.26a15.56,15.56,0,0,1-1.68,1.77C240.4,284.66,240,285.21,240.36,285.57Z" transform="translate(-0.14 -3.59)"/><path class="cls-1" d="M242.84,281.89l-.16.42A.92.92,0,0,0,242.84,281.89Z" transform="translate(-0.14 -3.59)"/><path class="cls-1" d="M267.57,249.77a.49.49,0,0,0,0-.36Z" transform="translate(-0.14 -3.59)"/><path class="cls-1" d="M267.35,250.81a1.9,1.9,0,0,0-.5,2.36,10.47,10.47,0,0,0,.72-3.4C267.37,250.18,266.57,250.27,267.35,250.81Z" transform="translate(-0.14 -3.59)"/><path class="cls-1" d="M273.17,243.55c.12.67-.47,1.07.24,1.37C273.84,244.89,273.79,243.58,273.17,243.55Z" transform="translate(-0.14 -3.59)"/><path class="cls-1" d="M323.8,196.09c.74-.78.66-1.43-.49-1.59C322.92,195.54,323.77,195.22,323.8,196.09Z" transform="translate(-0.14 -3.59)"/><polygon class="cls-1" points="323.42 189.64 323.99 189.72 325.03 189.42 323.42 189.64"/><path class="cls-1" d="M327.42,187.4a1,1,0,0,1,.33.55C327.73,187.53,327.69,187.17,327.42,187.4Z" transform="translate(-0.14 -3.59)"/><path class="cls-1" d="M327.75,188.16a.74.74,0,0,0,0-.21Z" transform="translate(-0.14 -3.59)"/><path class="cls-1" d="M327.26,188.46l.54.28a3.13,3.13,0,0,1-.05-.58C327.73,188.34,327.59,188.5,327.26,188.46Z" transform="translate(-0.14 -3.59)"/><path class="cls-1" d="M328.29,185.53l-2.05.67c.35,1.55,1.34-1.16,2.63.69Z" transform="translate(-0.14 -3.59)"/><path class="cls-1" d="M329.23,181.08c.91-1-1.13-3.51,1-3.58,0-3.65-3.45-.21-3.1-4.22-2,3.27,3.24,2.94,1.16,5.8C330,177.91,328.93,180.41,329.23,181.08Z" transform="translate(-0.14 -3.59)"/><path class="cls-1" d="M325.81,180.61c.9.5,1.46-1,1-1.62C326.52,179.39,324.94,179.69,325.81,180.61Z" transform="translate(-0.14 -3.59)"/><polygon class="cls-1" points="330.21 170.69 331.26 169.88 330.71 169.44 330.21 170.69"/><path class="cls-1" d="M331.85,170.51l.85,1.31C332.35,171.37,332.86,169.9,331.85,170.51Z" transform="translate(-0.14 -3.59)"/><path class="cls-1" d="M334.69,165.45c.63-.85-1.79-2.36-1.73-.23l.22-.43C333.56,165,334.77,164.18,334.69,165.45Z" transform="translate(-0.14 -3.59)"/><path class="cls-1" d="M333.46,151.94c-.19.63,0,1.47.56,1.45l-.16-1.88Z" transform="translate(-0.14 -3.59)"/><path class="cls-1" d="M326.94,150.8c-1.74.23-.22,1.65-1,2.69A5.57,5.57,0,0,0,326.94,150.8Z" transform="translate(-0.14 -3.59)"/><path class="cls-1" d="M336.2,150.42c.56.61,0,1.27-.23,1.69C336.94,152.09,337,150.81,336.2,150.42Z" transform="translate(-0.14 -3.59)"/><path class="cls-1" d="M336.23,147.48c.78-.45.89.31,1.42,0a2.48,2.48,0,0,0,.39-3.3c-.76.19-2.73.26-3.44-.41.18,2.08,3,3.71.48,4.2l2.47,2.24C338.35,148.67,335.85,148.54,336.23,147.48Z" transform="translate(-0.14 -3.59)"/><path class="cls-1" d="M330,150.33l1.17-.85c-1,0-1-.81-1.14-1.43C327.94,147.89,330,149.71,330,150.33Z" transform="translate(-0.14 -3.59)"/><polygon class="cls-1" points="336.98 132.71 336.91 130.38 336.66 131.09 336.98 132.71"/><polygon class="cls-1" points="337.91 131.4 338.52 131.45 337.73 129.54 337.91 131.4"/><polygon class="cls-1" points="339.04 129.19 338.9 129.44 339.19 130.84 339.04 129.19"/><path class="cls-1" d="M340.42,128.2l-.95.26c.13.6-1.05,1.56.15,1.66A1.49,1.49,0,0,1,340.42,128.2Z" transform="translate(-0.14 -3.59)"/><path class="cls-1" d="M320.94,108.88c.51.51,1.06.36,1.63.21l-1.37-.92C321.24,108.38,321.31,108.78,320.94,108.88Z" transform="translate(-0.14 -3.59)"/><path class="cls-1" d="M323.86,106.62l-1.39-2c-.61,1.87.67,2.38.63,4.1.66-.61-.37-1.82.26-2.63Z" transform="translate(-0.14 -3.59)"/><path class="cls-1" d="M333,73.43c1,.48,1,.06,1.31,1.5-.2-1.89.55-3.27,1-5.25-.78.11-1.45-1.72-1.41-.88l-.08,2.38-.61-.56C331.92,71.89,334.07,72,333,73.43Z" transform="translate(-0.14 -3.59)"/><path class="cls-1" d="M393.39,9.76c.14.56.63.82,1.1,1.08C395.19,9.62,393.25,10,393.39,9.76Z" transform="translate(-0.14 -3.59)"/><path class="cls-1" d="M.29,322.23c-.48,1.47.25.43,1,.17Z" transform="translate(-0.14 -3.59)"/><path class="cls-1" d="M1.29,322.4l.71.13A.64.64,0,0,0,1.29,322.4Z" transform="translate(-0.14 -3.59)"/><path class="cls-1" d="M7.85,322.51c-1.31,1.39-3.3,0-4,1.87a3.28,3.28,0,0,0,2.6.13A2.22,2.22,0,0,0,7.85,322.51Z" transform="translate(-0.14 -3.59)"/><path class="cls-1" d="M5.47,321.76l0,.95c.36-.54.73-1.07,1.08-1.63C6.16,321.32,5.82,321.54,5.47,321.76Z" transform="translate(-0.14 -3.59)"/><path class="cls-1" d="M4.44,321l.23.32c.63-.41,1.25-.78,1.86-1.22C5.84,320.46,5.14,320.72,4.44,321Z" transform="translate(-0.14 -3.59)"/><path class="cls-1" d="M13,322.3c-.47.19-1,.37-1.43.54-1.62-1,.6-1.85-.48-2.54-1.83.32-.16,2.73-2.55,2.71.38,1.15,3.72-.64,3.69,1.28C14.28,324.49,12.09,323.18,13,322.3Z" transform="translate(-0.14 -3.59)"/><path class="cls-1" d="M83.18,271a2,2,0,0,0,.26,0C83.24,270.88,83.08,270.83,83.18,271Z" transform="translate(-0.14 -3.59)"/><path class="cls-1" d="M97.42,252.38a3.5,3.5,0,0,0,.89-.53,1.72,1.72,0,0,0-.64,0Z" transform="translate(-0.14 -3.59)"/><path class="cls-1" d="M74.9,283.73a5.64,5.64,0,0,0-1,.25A1.08,1.08,0,0,0,74.9,283.73Z" transform="translate(-0.14 -3.59)"/><path class="cls-1" d="M155.34,154.26a1.86,1.86,0,0,0,.51.25l.05,0-.43-.37Z" transform="translate(-0.14 -3.59)"/><path class="cls-1" d="M109.65,229.11a3.29,3.29,0,0,0,.37-1C109.68,228.62,109.6,228.91,109.65,229.11Z" transform="translate(-0.14 -3.59)"/><path class="cls-1" d="M68.36,289.3l.29-.21a1.62,1.62,0,0,0-.47.12l.17.1Z" transform="translate(-0.14 -3.59)"/><path class="cls-1" d="M90.72,256.75a2.11,2.11,0,0,0,.7-.51A1.87,1.87,0,0,0,90.72,256.75Z" transform="translate(-0.14 -3.59)"/><path class="cls-1" d="M35.87,317.82a1.11,1.11,0,0,0,1-.58C36.48,317.08,36.14,317.17,35.87,317.82Z" transform="translate(-0.14 -3.59)"/><path class="cls-1" d="M44.09,314.08a.05.05,0,0,1,0,0C44.19,314.3,44.19,314.24,44.09,314.08Z" transform="translate(-0.14 -3.59)"/><path class="cls-1" d="M49.34,311.7a.31.31,0,0,1-.07.09C49.41,311.91,49.45,311.92,49.34,311.7Z" transform="translate(-0.14 -3.59)"/><path class="cls-1" d="M36.84,317.24c1,.42,2.09,2.55,2-.25l-.32-.26c.77.34,1.17-.94,1.75-1.27a2.88,2.88,0,0,0-.48-.5,9.44,9.44,0,0,1-1.45.3C37.37,315.06,37.36,316.42,36.84,317.24Z" transform="translate(-0.14 -3.59)"/><path class="cls-1" d="M83.46,271.38c-.4-.28-.61.3,0,0Z" transform="translate(-0.14 -3.59)"/><path class="cls-1" d="M79.68,277.9c.2-.14.39-.28.58-.44A.89.89,0,0,0,79.68,277.9Z" transform="translate(-0.14 -3.59)"/><path class="cls-1" d="M57.9,294.47a.88.88,0,0,1,.17,0C58,294.24,57.89,294.33,57.9,294.47Z" transform="translate(-0.14 -3.59)"/><path class="cls-1" d="M80.75,277a5.12,5.12,0,0,1-.49.45A.67.67,0,0,0,80.75,277Z" transform="translate(-0.14 -3.59)"/><path class="cls-1" d="M65.45,290.9h.14A.17.17,0,0,0,65.45,290.9Z" transform="translate(-0.14 -3.59)"/><path class="cls-1" d="M193.34,48.53c-.08.56-.82.45-1.25.75.9,1.85,1.21-1.88,1.69.28a2.16,2.16,0,0,0,.22-1.29l-1.74-.3C192.3,49.13,193.07,47.72,193.34,48.53Z" transform="translate(-0.14 -3.59)"/><path class="cls-1" d="M160.2,148l-.2.22c.77,0,1,.18,1.55-.67-1-1-2.88-.13-3.84-1.76a1.43,1.43,0,0,1-.3,1C158.53,146.44,159.47,147.21,160.2,148Z" transform="translate(-0.14 -3.59)"/><path class="cls-1" d="M157.41,146.8l-.09,0a2,2,0,0,0-.44.12,1.05,1.05,0,0,1-.29.5A1.54,1.54,0,0,0,157.41,146.8Z" transform="translate(-0.14 -3.59)"/><path class="cls-1" d="M184.63,63.31c-.13.18-.26.34-.37.48C184.66,63.66,184.72,63.5,184.63,63.31Z" transform="translate(-0.14 -3.59)"/><path class="cls-1" d="M126.64,241.44a5.79,5.79,0,0,0,0,.95A1.09,1.09,0,0,0,126.64,241.44Z" transform="translate(-0.14 -3.59)"/><path class="cls-1" d="M155.62,161a2.28,2.28,0,0,0-.41.6c0,.14,0,.26,0,.43Z" transform="translate(-0.14 -3.59)"/><path class="cls-1" d="M148.8,113.91c1.76.81-.08-.39,1.15-1.14l-.81-1.06A4.77,4.77,0,0,0,148.8,113.91Z" transform="translate(-0.14 -3.59)"/><path class="cls-1" d="M194.14,48.29a.67.67,0,0,1-.14-.09v.07Z" transform="translate(-0.14 -3.59)"/><path class="cls-1" d="M153.72,87.44c.13-.13.24-.25.35-.38A.82.82,0,0,0,153.72,87.44Z" transform="translate(-0.14 -3.59)"/><path class="cls-1" d="M155.52,151.82c-.27,1.11-.55,2.21-.86,3.31l.68-.87C154.56,153.6,156.51,152.53,155.52,151.82Z" transform="translate(-0.14 -3.59)"/><path class="cls-1" d="M145.18,127.92,144,128c1.78,3.73-2.33,6.81.5,10-4.69,3.16,3,3.29-1.24,6.2h.58c-1.59,5.84-3.57,11.74-5.49,17.46-.9,2.89-1.88,5.68-2.6,8.51a68.7,68.7,0,0,0-1.86,8.34l-.75-.28c-.91,2-1.71,4.07-2.57,6.08s-1.71,4-2.54,6-1.75,4.07-2.59,6.12-1.76,4-2.63,6.08a178.21,178.21,0,0,1-12.1,23.47c-.22,1.79,1.81,1.82,1.84,3.51-.38.5-1,1.76-1.87,1.25.16-1.31-.93-1.17-1-1.72a21,21,0,0,1-2,2.61,4.44,4.44,0,0,0-1.23,2.85l1.86-.58c.08.87-.81,1.6-1.2,2.1-.4-.58-2-.56-2-1.18.64,4.87-2.73,1.68-3.41,5a7.29,7.29,0,0,1,1.44,4.44c.11,1.79,0,3.73,0,5.38l-1.37.71c1.09-1.48-1.6-1.13-.18-2.9-1.7,1.1-1.85,3.17-3.27,4.34a1.29,1.29,0,0,1,1.2,1.49c-1,.66-2.08-.08-3,.83l.08-1.5c-1.29.05-.68,1.43-1,2.13-1-.5-2.36.82-3.13-.22.14,2.25-.87,2.2-1.29,4.18,2.13-.67.82,1.31,1.67,1.76.35-.64.7-1.27,1-1.93-2.48,1.86.46-.88-1.17-1.92,1.57-.54,1.23,3.51,2.48,1.47-1,2.85-2.1,2.71-2.77,6,.87-1.58.72,1.07,1.78.73-1.41,1.77-.87,0-2.25-.29-.74,1-1.87.57-1.56,2.34-1.76,1.08-.88-1.18-2.12-1-.26-.72,1-1.43,1.79-2.32s1.26-1.89-.52-3.06c.62-.8.19-2.76,1.18-3.81-1.24.62-3.45,1.07-3.73,2.88l1.75,1.61c-.73.95.33,2.2-.41,2.7-.21-.79-1.51-.85-2,0,.43,0,.63-.31.87,0-1.06,1.43,0,2.7-1.13,4.6,1.63-.89,2.4-.68,4.29-1.23.93,1.45-.61,1-1.13,1.9-.06-.26,0-.44-.4-.45l-.11,1.32c-2,1.14-1.57-1.83-3.4-1.07-1.88-.06-.63,1.78-1.87,1.92.16.06.32.13.44.16a1.78,1.78,0,0,1-.42.26l.09.07c-.63,1-1.59,1.83-1,2.93-.49-.32-.62.83-.63,1.37-.11.81-.24,3-2.32,2.21,0,0,0,0,0-.06-1.21.86-2.5,1.13-2.72.43l-2.07,1.21L74,278.17c-1.27,1.74-.47,2.32-.5,4.52-1.81.26-3.32,2.6-3.75,3.69a1.68,1.68,0,0,0-.66.54l1.1-.06c-1.36,1-.67,1.53-1.54,2.23.27,0,.36,0-.29.21-.17.09-.35.2-.58.3-.06-.17.15-.31.4-.39l-.49-.3c-2.1-.53-1,2.06-2.56,2.42a1.16,1.16,0,0,1,.32-.43c-.92.13-3.19-1-2.64.28-.25,0-.32.36-.34.8l-.62.15a3,3,0,0,1,.62-.14c0,.6,0,1.27-.21,1-.61.33-1.24.64-1.86.94-.46,0-.78.48-1,.91l-.67-.36c-.56.5-.79.17-.82,0-3.38-.49-2.73,3.16-6.15,2.93.12,1.24,1.36,1.07,1.75,1.53.08,1-.91,2.49-1.33,3.4-1.9-.71-5.89,0-6.41-2.3-2.1.88,1.28.89.63,2.09l-.28,0a3.86,3.86,0,0,1,2.55.77c.37.48.14,1.06-.27,1.52a2.33,2.33,0,0,1-1.39.74l-.41-1.73c-1.63,1.51-.05,3.6-.51,5.77-1.88.2-1.66-1.67-2.66-2.88-.47.42-1,.77-1.46,1.16l-.55-1.16c-.91.79-.66,2-2.35,2.22.56-1.59-2.69-.09-1.88-2.25-1,0-.25,2.33-1.34.93,0,1.5,1,.33,1.6.55,1.13,1.68-1.46,1.62-2.27,2.51-.46-.91.21-1.39-1.21-1.54,0,.82-.48,1.69-1.49,1.08.47,1.21-1.27.73-2,.9.84,0,2.28.45,2.18,1.67a3,3,0,0,1-2.29,1.46l1.15.23c-.58,2.21-2.45-.55-3.89.57.46-.95.88-1.13,1.17-2.23A19.27,19.27,0,0,1,26,315.63l-1.95-1.36c.1,1-1.59.4-1.23,1.64-2-.32,1-1.91.85-2.88-2.37-.15-1.13,2.61-3.75,1.26l.38-1.34c-.71.09-1.92,1.12-2.15.56.1.42.41.16.84.05.23,2.6-2.77,2.6-1.9,5.11.35,0,.69-.06,1-.08-1.38.89-2.11,2.84-3.49,2.2-1.09-.64.26-1.9.63-2.69-1.45.14-.54,3.11-2.34,3.23,1,.23,1,1.19.6,2,1.06-.05,3.31,0,2.69-1l-.43-.17c-.05-.7.44-1.07.64-1.46,1.37-.3.91,1,1.31,1.47,2.4-.15-.43-2.62,1.65-3.08l.4.43c.82-.93,2.33-1.42,2.15-3.06,1.37,1.44,2.08-1.35,3.34-.65.65,1.77-.23,2-1.35,2s-2.45-.13-2.76,1c1.29.46-.15,1.9-.4,2.86,1-.84,2-1.65,3-2.5.4.41,2,1.9,2.18.39h-.3c1.24-.83.4-2.2,1.72-2.07.29.28.12,1,.1,1.23,1.19,0,.64-1.09,1.24-1.64,1.18-.05,0,1.66,1,1.74.76-1.82,2.07-.38,3.13-.85-.6-.93.22-2,.79-2.95s.9-1.81-.55-2.25c.65-.77,1.28-1.57,1.91-2.35,1.19.72-.57,3.48.77,4.88-.68.25-1.35.5-2.05.71.32.6.71.69,1.16.54a6.68,6.68,0,0,0,1.43-1c1-.85,2.18-1.71,3.43-.62,1.13-.33.7-.58,3.26-.28l-1.32-2a3.17,3.17,0,0,1,2.37,1.42,4.87,4.87,0,0,1,1.74-.79,1.32,1.32,0,0,1-.39,1.06c1.36.83,1.39.28,1.35-.49.15-.76.82-1,1.48-1.32l-.19,1.09c.31-.38.68-.86.53-1.26a1.84,1.84,0,0,0,.66-.58,5.2,5.2,0,0,0-2.6-1.39c2.78-.36,4.37-1.74,7.3-1.17.27.64-.16,1.86.14,1.79a1.91,1.91,0,0,0,1.06-2.77,3.3,3.3,0,0,1,.5-.39c.49.4,1,.81,1.57.64a1,1,0,0,0,.87,0c-.64-1.83,1.71-2.17,1.66-3.15a4.13,4.13,0,0,0-1.58.84c.13-1.56.05-3.2,1.18-2.71-.8,1.91,2.6.71.69,2.5,2.82,1.07-.1-1.93,1.95-2.25l1.55.1c.6,1.26-1.3,1.7-.78,2l.63-.62c-.14,1.38-3.32,2.48-4.24,4.89l3.89-1.51a23.71,23.71,0,0,1,3-2.81c1.1-.87,2.3-1.64,3.38-2.52,2.19-1.73,4.23-3.52,5-6.07a.53.53,0,0,0-.12.14,3.54,3.54,0,0,0-.43-.83l.36.15,0-1.33c1.54.41,3.15-.49,5-.72-1.29,0-1.29,0-2-.76-.73-1.19-1-1.74.41-2.26.64.74,0,1.29,1.26,1.2-.73,0-.8-.85-.41-1.35,1,0,2.13-.8,2.79-.06-.11.44-.56.38-.85.43-.12.44,1.74-.32,1.41,1l.94-1.16c1.18.05.42,1.35,1,1.51,1.4-2.14.81-4.66,2-6.61a18.31,18.31,0,0,0,1.34,1.59c1.71-.68,1-4.25,2.22-5.69.26.66-.44,1-.63,1.6,4.8-3.48,8.06-7,13.31-9.73l-.76-2.57,2.07-.12c4.89-3.51,6.51-8,9.26-12.77.91-1.46,1.87.09,2.85-.19,2.4-3,.92-5.13,2.46-8.38.3.79,1.43,2.58,2.37,1.35-.38-.61-1.12-1.33-.24-1.91l.29.79c1.33-.19,1-1.42,2.4-2.74A13.1,13.1,0,0,0,124,238c1.66-2.32,1.92,1.5,2.61,1.29-1.74,1.31-.38,1.41,0,2.19,0-1.25.35-2.56,2-2.22.68-1.34,1.12-1.88.91-3.71.1.92-1,1-1.25.07,1.09-.78,2.09-3.78,3.75-2.66,3.12-6.38,7.16-13.22,10.27-20.14-.38-1.59-.78.7-1.13-.24-.42-2.24,1.25-1,.89-2.83l.74,1c1.06-1.95.19-4.91.11-7.25,1,.82,1.63-1.2,1.62.72.21-1,5.82,0,5.09-1.21l-5.22-.95c-.45-.25.41-1.47,0-1.47,1.29-.43,2.84-1,3.08-1.58,1.33.21.45,1.57.08,2.36,2,1,2.44-2.17,3.8-.23.4-1.88-1.14-.19-1.45-1.53.36-.44.7-.91,1.05-1.37l-1.15.92c-.1-1.54-1.47-2.59.33-3.86l-1.29-2.54c1.68.43.8-1.18,1.53-1.95l.81.95a3.41,3.41,0,0,1,1.71-2.17c1.18,1.22-.74,1,.51,1.79l1-1.19c-.93-.33-1.35-1.45-2.24-.68-1.27-1.87-2.47-3-1.24-6.1,2.09-.88.88,2,2.65,1.94,1.81-3.06-2.84-5.36-2-7.17,1.41-2.21-.08-2.52.5-5,.88,1.1,1.66-1.38,2.84-1.54l.86,1.3c-.13-.85.51-1.45,1.24-1-1.52-.28-.45-3.6-.75-5.51l-1.35,0c-.08-1.45-.41-3.49.29-4.81.1-2.2-1.16-2-2.17-3.94a4.66,4.66,0,0,1,4,.43c-.78.41-.62,1.45-1.24,2.28.46,2.92,2.58,5.69,1.28,8.21,2.77,2,.11-1.9,1.52-2.92a.34.34,0,0,1,.22.31.63.63,0,0,1,.17-.31c.13,1.06.22,2.76,1.72,3.45.1-1.71-2.77-2-.93-3.65-.49-1.7,2.27-2.3,2.7-3.15-.93-1.28-3.4-1.92-2.35-4.23l1.48,1.48c.69-2.76-2.24-1.89-1.57-4.41-.41.84-1.5-1.24-1.95.43a4.15,4.15,0,0,1,.29-4.17c-.19-.41-.58-.2-1.15-.39-1.54,1.24.67,2.65-1.36,3.5l1.63,1.48a1.8,1.8,0,0,1-3.08,0c0,.41.16.82-.24,1-2.87-.42,1.4-1.44-.88-2.48l0,1c-1.93,0-1.05-2.65-.67-3.89,1.17-1.25,1.76-2.5,3.12-2.31l.15,2.06c1.28-.78-.09-2.61.2-3.73a.9.9,0,0,0,.49-.23.86.86,0,0,1-.39,0,1,1,0,0,1,.68-.52c.27-1-.26-2.6.36-3.44l-1.22-.12.65.25c-.23.9-1.21,2-2,1.12-.42-2.21,2-2.16,3.09-2.44,1.74.83-.41,2,0,3.16,1.93-.26.61-2.05,2.23-3.94,1.81,1.24-.53,2.46,1.21,3.3.68-1.65-.64-2.38.23-4.09.87.41.6,2.19,1.81,2.31l.8-1.06c-.46,2.89,2.56,0,2.6,2.32,1-.9-1.32-1.8.23-3.05-.94.25-2.76,1.14-3.25-.44l.89-1.5c1.08-.5,1.79,2.09,2.8,1.19l-.36-1.83c-.6-.05-1.05.7-1.77,0,.83-.86-2-2-2.64-3.34.21-.91.47-1.61,1.22-1.8-1.34-2.62-.75-5.52-2-7.93.94,1.66,2,.31,3.09-.39,0,1.7,1.82,2,3,2.14,0-1-1.82-2-2.54-1.64,1.07-1.55-1.08-1.4.44-2.65.81-.85,1.75.8,2.51.6.41-1.8-2.17-.9-1.38-2.8.22.16.27.35.64.25a2,2,0,0,0-1-2.68c2.63-.69.31-3.23,2.63-2.58-.18-2.68-1.36.15-2.09-.5-.86-1.25.36-3,.84-3.55-.06.63.48,1.33,0,1.87l1.73-.24c1.76-2.94-3.33-2.69-1.34-5.49.56,1.74,1.14.75,2.15,1.75-.33-.55.59-2.84-.94-1.64a10.87,10.87,0,0,1,1.27-2.58c-.43-1.13-.67-2.32-1.62-3.13a6.37,6.37,0,0,1,2.77-3.1c-.49-3.59,2.23-6.16,1.8-9.9l-.16.22c1-2.58-2.45.65-1.68-2.11,1.89.87,1.77-1.32,3-1.93A9.33,9.33,0,0,0,176.07,81c.1-1.49.18-3,1.36-4.27a.91.91,0,0,1,.67,1.09c1.39-2.07,1.54-4.06,2.4-6l.2.17a7.46,7.46,0,0,0,2.12-4.55c.31-1.63.39-3.4.85-5.14.13.37.8.75,1,1.06a11.79,11.79,0,0,0,1.59-2.68,3.52,3.52,0,0,0-.11-3.07c1.35-.5,1.37-.87,1.44-1.31s.15-1,1.65-1.67c.38,0,.16.4.15.59,1.22-.82,1.46-1.74,2.31-2.76a17.2,17.2,0,0,0-.24-4,3.81,3.81,0,0,1,1.38-3.56c2.39,1.41-.64,2.1,1.2,3.4-.08-.85-.19-1.64.88-2,.58,1.06.5.49,1.12,1.36,1-.14-.75-4-.53-3.81-.42-.34-.79-.31-1.12.29-.93-1.64,1.79-2.87,2.32-4.54-.37.39-1.87,1.4-2.51.11,1.88-1.42.25-3.65.42-5.65,2.3-.88.82,2.73,2.59,3.62.77.16,2.48.51,2.54,1.65,1.41-1.17,1-3.2,1.83-4.72l.37.4a13.19,13.19,0,0,0,1.4-3.45c.46-1.15,1-2.17,2.12-2.47l-1.19.29c0-.5,1-1.22.68-2.48.59.7,2.24.22,2.32,1.2a3,3,0,0,1-.16-2,8.33,8.33,0,0,1,.92-1.84c.74-1.22,1.52-2.44,1.07-3.89,1,.13,1.34,1.37,1.63,2-1.28.8-2.06.71-1.87,2.09.91-.85,2.08-.88,2.37-.25a8.94,8.94,0,0,1,.57-3.4,5,5,0,0,0,.37-3.06c1.3.13,2.29,0,3,1.37,1.21-1.55.13-2.19-.84-2.76s-1.83-1.07-.06-2.45c2.47-.07-.35,2.8,2.13,1.49l-.25.51c3.89,1.91-.54-3.06,1.42-4.31,1.48,1.57-.41,2.15,1.76,2.49,1.36-1.61.34-4.75,2.46-5.39l.23.94c1-.88,3.49-1.88,4.52-2.74.28.33.08.38-.07.61,2.5-.62.31-1.48,2.78-1.29l0-1.19c-1.23-.1-3.46.08-3.92,1.79.46-1.72-3.16-1.19-3.6-3.06l.17.75a11.59,11.59,0,0,0-3.37-.09,18.82,18.82,0,0,0-3.19.79c-1.06.35-2.11.77-3.17,1.21-.52.22-1.06.43-1.59.67l-1.58.72a4.06,4.06,0,0,1-2.71,2.84,4.87,4.87,0,0,0-3.06,2.62c1.26,2.19-.1.75-1.74,2.86.84-1.15-1.13-1.53-2-1.18a3.54,3.54,0,0,1-.59,2c-.95-.27-4.75.69-4.43,2.75-1.72.58-.3-.83-.41-1.45-1.38-.42-.24,1.64-1.23,1.42a.6.6,0,0,1-.14-.41,22.44,22.44,0,0,1-2.46,2.19c-.81.63-1.68,1.24-2.68,2.12,1.7,1.77-1,2.5-1.06,4-.37-.79-1.62.57-2.45.87l.56,2.22c.38,2-2.07.83-2.41,2.8l.6-.1c-.15,1.49-3.32,3.41-5.13,3.79-1.25,6.41-4,10-7.11,13.78a56.58,56.58,0,0,0-4.58,6,31.32,31.32,0,0,0-2,3.59,30.92,30.92,0,0,0-1.47,4.27c.41,1,1.37-.14,2.17.83a12.92,12.92,0,0,1-.71,2.63c.94-.75.12-.86.72-.52,0-.63,0-1.26,0-1.89.2,0,.2.19.58.15a4,4,0,0,1,.18-2.13c.2,1.25,1.79,2.15.63,3.31-.2-.19-.2-.4-.21-.82-.56,1.11.22,1.45-.52,2.16-.73.94-.11.86-.9.74l-2,3c1.48,2.3-1,3.76-1.38,4.26-1.44-.83.17-2.38-1.1-3.67l-1.49.88,1.22.45-.85,1.64-.21-.17c.42.35.84.7.28,1-.19,0-.58.1-.6-.12l.33,1.44c-1.08-1.08-.71,1-2.14.4-1.81,3.91.61,5.71-2.26,8.8.84-.41,2.1,1.7,1.57,2.73-.51.55-.89.64-1.37.1l.43,1.62c-2.74,1.29-1.6,3.38-3,5.86l-.64-.27a4.38,4.38,0,0,1,.47,3.74l-1.28-.53c-1.29,1.61,2.53,1.92,1.29,3.73,1.44.26,2.41-.84,3.81-.76-1.55.18-2.18,2.25-1,2,.23,2.06-.28,1.35-.66,1.45l.66,1.31c-.32,1.36-2,.09-2.69-.57,1.31,1.57,0,2.77-.55,4.18l-.54-.71-.61,1.87a4.49,4.49,0,0,1-.21,4.7L148.05,116c-1.19,1,.55.7.82,1.06.6,1.94-.75,2.09-2,2.84C148.36,123.12,142.78,125,145.18,127.92ZM59,294.86l.38.09C59,295.55,58.93,296,59,294.86Zm12.67-8.79c-.94,1.79-1.08.69-1.52.37,1.75-.75,2.12-1.9,3.77-2.46a3.62,3.62,0,0,1-1.1-.67,1.82,1.82,0,0,1,2.13.15C75.55,285.45,70.29,285.74,71.63,286.07ZM46.77,313.51c0-.17,0-.34,0-.49h0Zm7.81-6.1a1.32,1.32,0,0,0,1,.36C55.14,307.41,54.78,307.13,54.58,307.41Zm17.49-8.72c.86.39,1.51-.46,2-1.07A9.66,9.66,0,0,0,72.07,298.69Zm70.54-97.4c.06.65.38,2,1.31,1.29-.45-.71,1-1.1.2-1.88l.12-.06A6.41,6.41,0,0,0,142.61,201.29ZM152.7,145.7c.76.26,1.52.84,2.16.7l-.1.14c.3-.08.54-.16.69,0,.24-.42.52-.85.36-1.21C153.31,144.66,153.09,143.64,152.7,145.7Z" transform="translate(-0.14 -3.59)"/><path class="cls-1" d="M158.77,166.45c0-.22.08-.39.08-.53A3,3,0,0,0,158.77,166.45Z" transform="translate(-0.14 -3.59)"/><path class="cls-1" d="M155.78,145.41c-.15-.07-.51.4-.92,1C155.2,146.33,155.51,146.07,155.78,145.41Z" transform="translate(-0.14 -3.59)"/><path class="cls-1" d="M14.74,315.59l.47-.37L14,314.69c-1.56,1.22-1.43,2.33-1.61,3.69,1.35-1.52,2.45-1.14,4.42-1.92Z" transform="translate(-0.14 -3.59)"/><path class="cls-1" d="M17.57,323.76c.27.29.94,1,1.24,1.05l.1-.83C18.46,323.93,18,323.83,17.57,323.76Z" transform="translate(-0.14 -3.59)"/><path class="cls-1" d="M40.63,320.26l-2,.07C38.34,321.19,40.82,321.48,40.63,320.26Z" transform="translate(-0.14 -3.59)"/><path class="cls-1" d="M28.39,310.41l-.55,1.12c1,.38,2-.07,1.82-1C28.82,311.36,29.23,310.11,28.39,310.41Z" transform="translate(-0.14 -3.59)"/><path class="cls-1" d="M45.29,318.39c-.12-1.65,2-.16,1.72-1.64C46.74,317.34,44.73,317,45.29,318.39Z" transform="translate(-0.14 -3.59)"/><path class="cls-1" d="M38.09,305.52c-1.08-1.12-1.35.45-2.47.52C36.43,305.73,38.18,306.61,38.09,305.52Z" transform="translate(-0.14 -3.59)"/><path class="cls-1" d="M52.15,310.07c.45,1-.25,1.33-1.15,1.48.1-.43,0-1,.28-1.3a14.36,14.36,0,0,1-1.82,2.29c1.37.16,3.17-.19,3.65,1.11C53.39,312.32,53.56,310.44,52.15,310.07Z" transform="translate(-0.14 -3.59)"/><path class="cls-1" d="M40.33,304.29c-1,0-1.89-.73-2.8-.21.48.62,1.26,1.5,2.31.81l.14,1.36C41.43,306.62,38.85,304.89,40.33,304.29Z" transform="translate(-0.14 -3.59)"/><path class="cls-1" d="M58.24,310.06l-.81-.22c-.66,1.56-2.44,2-2.32,3.78A7.89,7.89,0,0,0,58.24,310.06Z" transform="translate(-0.14 -3.59)"/><path class="cls-1" d="M45.32,304.5l-.67-1.68c-1.22.34.35.5.15,1.08-.44-.07-1,0-1.07.45C44.88,303.47,44.47,305.61,45.32,304.5Z" transform="translate(-0.14 -3.59)"/><path class="cls-1" d="M48,300.83l1-1.46-2-1.11C45.72,299.76,47.45,299.28,48,300.83Z" transform="translate(-0.14 -3.59)"/><path class="cls-1" d="M50.31,300.91l.33.21c.26-1.17.52-2.31.73-3.49A10.23,10.23,0,0,0,50.31,300.91Z" transform="translate(-0.14 -3.59)"/><path class="cls-1" d="M81.79,292.88c-.28-.77-2.06-.53-1-.29C81,293.26,83.18,292.71,81.79,292.88Z" transform="translate(-0.14 -3.59)"/><path class="cls-1" d="M68,285.57c.92.05,1.93-2.23,2.31-3.26a14.55,14.55,0,0,1-1.67,1.77C68,284.66,67.6,285.21,68,285.57Z" transform="translate(-0.14 -3.59)"/><path class="cls-1" d="M70.47,281.89l-.17.42A1,1,0,0,0,70.47,281.89Z" transform="translate(-0.14 -3.59)"/><path class="cls-1" d="M95.2,249.77a.49.49,0,0,0,0-.36C95.21,249.53,95.2,249.64,95.2,249.77Z" transform="translate(-0.14 -3.59)"/><path class="cls-1" d="M95,250.81a1.9,1.9,0,0,0-.5,2.36,10.47,10.47,0,0,0,.72-3.4C95,250.18,94.2,250.27,95,250.81Z" transform="translate(-0.14 -3.59)"/><path class="cls-1" d="M100.8,243.55c.12.67-.47,1.07.24,1.37C101.47,244.89,101.42,243.58,100.8,243.55Z" transform="translate(-0.14 -3.59)"/><path class="cls-1" d="M151.43,196.09c.74-.78.66-1.43-.49-1.59C150.55,195.54,151.4,195.22,151.43,196.09Z" transform="translate(-0.14 -3.59)"/><polygon class="cls-1" points="151.04 189.64 151.62 189.72 152.66 189.42 151.04 189.64"/><path class="cls-1" d="M155.05,187.4a1,1,0,0,1,.33.55C155.36,187.53,155.32,187.17,155.05,187.4Z" transform="translate(-0.14 -3.59)"/><path class="cls-1" d="M155.38,188.16a.74.74,0,0,0,0-.21Z" transform="translate(-0.14 -3.59)"/><path class="cls-1" d="M154.89,188.46l.54.28a3.13,3.13,0,0,1-.05-.58C155.36,188.34,155.21,188.5,154.89,188.46Z" transform="translate(-0.14 -3.59)"/><path class="cls-1" d="M155.92,185.53l-2,.67c.35,1.55,1.34-1.16,2.63.69Z" transform="translate(-0.14 -3.59)"/><path class="cls-1" d="M156.86,181.08c.91-1-1.13-3.51,1-3.58,0-3.65-3.45-.21-3.1-4.22-2,3.27,3.25,2.94,1.17,5.8C157.63,177.91,156.56,180.41,156.86,181.08Z" transform="translate(-0.14 -3.59)"/><path class="cls-1" d="M153.43,180.61c.91.5,1.47-1,1-1.62C154.15,179.39,152.57,179.69,153.43,180.61Z" transform="translate(-0.14 -3.59)"/><polygon class="cls-1" points="157.84 170.69 158.88 169.88 158.33 169.44 157.84 170.69"/><path class="cls-1" d="M159.47,170.51l.85,1.31C160,171.37,160.49,169.9,159.47,170.51Z" transform="translate(-0.14 -3.59)"/><path class="cls-1" d="M162.32,165.45c.63-.85-1.79-2.36-1.73-.23l.22-.43C161.19,165,162.39,164.18,162.32,165.45Z" transform="translate(-0.14 -3.59)"/><path class="cls-1" d="M161.09,151.94c-.2.63,0,1.47.56,1.45l-.16-1.88Z" transform="translate(-0.14 -3.59)"/><path class="cls-1" d="M154.57,150.8c-1.75.23-.22,1.65-1,2.69A5.57,5.57,0,0,0,154.57,150.8Z" transform="translate(-0.14 -3.59)"/><path class="cls-1" d="M163.82,150.42c.57.61,0,1.27-.22,1.69C164.56,152.09,164.59,150.81,163.82,150.42Z" transform="translate(-0.14 -3.59)"/><path class="cls-1" d="M163.86,147.48c.77-.45.88.31,1.42,0a2.46,2.46,0,0,0,.38-3.3c-.75.19-2.72.26-3.43-.41.18,2.08,3,3.71.48,4.2l2.47,2.24C166,148.67,163.47,148.54,163.86,147.48Z" transform="translate(-0.14 -3.59)"/><path class="cls-1" d="M157.66,150.33l1.16-.85c-1,0-.95-.81-1.13-1.43C155.57,147.89,157.66,149.71,157.66,150.33Z" transform="translate(-0.14 -3.59)"/><polygon class="cls-1" points="164.6 132.71 164.54 130.38 164.29 131.09 164.6 132.71"/><polygon class="cls-1" points="165.54 131.4 166.15 131.45 165.36 129.54 165.54 131.4"/><polygon class="cls-1" points="166.67 129.19 166.53 129.44 166.81 130.84 166.67 129.19"/><path class="cls-1" d="M168.05,128.2l-1,.26c.13.6-1.06,1.56.15,1.66A1.49,1.49,0,0,1,168.05,128.2Z" transform="translate(-0.14 -3.59)"/><path class="cls-1" d="M148.57,108.88c.5.51,1.06.36,1.63.21l-1.37-.92C148.87,108.38,148.94,108.78,148.57,108.88Z" transform="translate(-0.14 -3.59)"/><path class="cls-1" d="M151.49,106.62l-1.39-2c-.62,1.87.67,2.38.62,4.1.67-.61-.36-1.82.27-2.63Z" transform="translate(-0.14 -3.59)"/><path class="cls-1" d="M160.62,73.43c1,.48,1,.06,1.31,1.5-.19-1.89.56-3.27,1-5.25-.78.11-1.45-1.72-1.41-.88l-.08,2.38-.61-.56C159.55,71.89,161.7,72,160.62,73.43Z" transform="translate(-0.14 -3.59)"/><path class="cls-1" d="M221,9.76c.14.56.62.82,1.1,1.08C222.82,9.62,220.88,10,221,9.76Z" transform="translate(-0.14 -3.59)"/></g></g></svg>